G04*
G04 #@! TF.GenerationSoftware,Altium Limited,Altium Designer,20.0.9 (164)*
G04*
G04 Layer_Color=128*
%FSLAX24Y24*%
%MOIN*%
G70*
G01*
G75*
%ADD155C,0.0020*%
D155*
X-4138Y4126D02*
X-3748D01*
X-3943Y3931D02*
Y4321D01*
X-2138Y4526D02*
X-1748D01*
X-1943Y4331D02*
Y4721D01*
X-2138Y3726D02*
X-1748D01*
X-1943Y3531D02*
Y3921D01*
X5650Y11240D02*
X5847D01*
X5748Y11142D02*
Y11338D01*
X3052Y11240D02*
X3248D01*
X3150Y11142D02*
Y11338D01*
X0Y7126D02*
X236D01*
X118Y7008D02*
Y7244D01*
X0Y3740D02*
X236D01*
X118Y3622D02*
Y3858D01*
X0Y8071D02*
X236D01*
X118Y7953D02*
Y8189D01*
X0Y7598D02*
X236D01*
X118Y7480D02*
Y7717D01*
X0Y1299D02*
X236D01*
X118Y1181D02*
Y1417D01*
X0Y827D02*
X236D01*
X118Y709D02*
Y945D01*
X0Y354D02*
X236D01*
X118Y236D02*
Y472D01*
X0Y4213D02*
X236D01*
X118Y4094D02*
Y4331D01*
X0Y4685D02*
X236D01*
X118Y4567D02*
Y4803D01*
X0Y11496D02*
X236D01*
X118Y11378D02*
Y11614D01*
X0Y11024D02*
X236D01*
X118Y10906D02*
Y11142D01*
X0Y10551D02*
X236D01*
X118Y10433D02*
Y10669D01*
X8307Y719D02*
X8661D01*
X8484Y541D02*
Y896D01*
X7307Y719D02*
X7661D01*
X7484Y541D02*
Y896D01*
X6307Y719D02*
X6661D01*
X6484Y541D02*
Y896D01*
X5307Y719D02*
X5661D01*
X5484Y541D02*
Y896D01*
X-4459Y10748D02*
X-4104D01*
X-4281Y10571D02*
Y10925D01*
X-1781Y10748D02*
X-1427D01*
X-1604Y10571D02*
Y10925D01*
X14173Y10827D02*
X15354D01*
X14764Y10236D02*
Y11417D01*
X3278Y5719D02*
X3376D01*
X3327Y5669D02*
Y5768D01*
X2510Y5913D02*
X2608D01*
X2559Y5864D02*
Y5963D01*
X12283Y8248D02*
X12382D01*
X12333Y8199D02*
Y8297D01*
X11999Y443D02*
X12097D01*
X12048Y394D02*
Y492D01*
X11476Y974D02*
X11575D01*
X11526Y925D02*
Y1024D01*
X11847Y236D02*
X11945D01*
X11896Y187D02*
Y285D01*
X5226Y4419D02*
X5325D01*
X5276Y4370D02*
Y4469D01*
X-2197Y8502D02*
X-2098D01*
X-2148Y8453D02*
Y8551D01*
X-3018Y2062D02*
X-2920D01*
X-2969Y2012D02*
Y2111D01*
X6321Y5882D02*
X6420D01*
X6370Y5833D02*
Y5931D01*
X7530Y5886D02*
X7628D01*
X7579Y5837D02*
Y5935D01*
X7697Y5416D02*
X7795D01*
X7746Y5367D02*
Y5465D01*
X6713Y5364D02*
X6811D01*
X6762Y5315D02*
Y5414D01*
X12195Y1545D02*
X12293D01*
X12244Y1496D02*
Y1594D01*
X12441Y2175D02*
X12539D01*
X12490Y2126D02*
Y2224D01*
X6663Y1585D02*
X6762D01*
X6713Y1535D02*
Y1634D01*
X6237Y1188D02*
X6335D01*
X6286Y1139D02*
Y1238D01*
X10778Y10965D02*
X10876D01*
X10827Y10915D02*
Y11014D01*
X12008Y3652D02*
X12106D01*
X12057Y3602D02*
Y3701D01*
X12011Y3061D02*
X12109D01*
X12060Y3012D02*
Y3110D01*
X10664Y2002D02*
X10762D01*
X10713Y1953D02*
Y2051D01*
X10666Y1451D02*
X10764D01*
X10715Y1402D02*
Y1500D01*
X11083Y968D02*
X11181D01*
X11132Y919D02*
Y1017D01*
X10788Y968D02*
X10886D01*
X10837Y919D02*
Y1017D01*
X8809Y2362D02*
X8907D01*
X8858Y2313D02*
Y2411D01*
X8809Y1181D02*
X8907D01*
X8858Y1132D02*
Y1230D01*
X8809Y394D02*
X8907D01*
X8858Y345D02*
Y443D01*
X8022Y2756D02*
X8120D01*
X8071Y2707D02*
Y2805D01*
X8022Y1969D02*
X8120D01*
X8071Y1919D02*
Y2018D01*
X8022Y394D02*
X8120D01*
X8071Y345D02*
Y443D01*
X7628Y11417D02*
X7726D01*
X7677Y11368D02*
Y11467D01*
X7628Y11024D02*
X7726D01*
X7677Y10974D02*
Y11073D01*
X7628Y2362D02*
X7726D01*
X7677Y2313D02*
Y2411D01*
X7628Y1575D02*
X7726D01*
X7677Y1526D02*
Y1624D01*
X7234Y1181D02*
X7333D01*
X7283Y1132D02*
Y1230D01*
X6841Y11417D02*
X6939D01*
X6890Y11368D02*
Y11467D01*
X6841Y394D02*
X6939D01*
X6890Y345D02*
Y443D01*
X6447Y11417D02*
X6545D01*
X6496Y11368D02*
Y11467D01*
X6447Y11024D02*
X6545D01*
X6496Y10974D02*
Y11073D01*
X6053Y11417D02*
X6152D01*
X6102Y11368D02*
Y11467D01*
X6053Y11024D02*
X6152D01*
X6102Y10974D02*
Y11073D01*
X6053Y394D02*
X6152D01*
X6102Y345D02*
Y443D01*
X4872Y394D02*
X4970D01*
X4921Y345D02*
Y443D01*
X4478Y3937D02*
X4577D01*
X4528Y3888D02*
Y3986D01*
X4478Y1969D02*
X4577D01*
X4528Y1919D02*
Y2018D01*
X3297Y3937D02*
X3396D01*
X3346Y3888D02*
Y3986D01*
X3297Y394D02*
X3396D01*
X3346Y345D02*
Y443D01*
X2510Y11417D02*
X2608D01*
X2559Y11368D02*
Y11467D01*
X2116Y6299D02*
X2215D01*
X2165Y6250D02*
Y6348D01*
X2116Y5512D02*
X2215D01*
X2165Y5463D02*
Y5561D01*
X935Y3543D02*
X1033D01*
X984Y3494D02*
Y3593D01*
X541Y7087D02*
X640D01*
X591Y7037D02*
Y7136D01*
X541Y5906D02*
X640D01*
X591Y5856D02*
Y5955D01*
X541Y5118D02*
X640D01*
X591Y5069D02*
Y5167D01*
X541Y3543D02*
X640D01*
X591Y3494D02*
Y3593D01*
X541Y1969D02*
X640D01*
X591Y1919D02*
Y2018D01*
X541Y1575D02*
X640D01*
X591Y1526D02*
Y1624D01*
X541Y787D02*
X640D01*
X591Y738D02*
Y837D01*
X12142Y236D02*
X12240D01*
X12191Y187D02*
Y285D01*
X10492Y968D02*
X10591D01*
X10541Y919D02*
Y1017D01*
X10013Y4197D02*
X10111D01*
X10062Y4147D02*
Y4246D01*
X9571Y4126D02*
X9670D01*
X9621Y4077D02*
Y4175D01*
X9571Y3851D02*
X9670D01*
X9621Y3801D02*
Y3900D01*
X9571Y3575D02*
X9670D01*
X9621Y3526D02*
Y3624D01*
X9571Y3299D02*
X9670D01*
X9621Y3250D02*
Y3349D01*
X9571Y3024D02*
X9670D01*
X9621Y2975D02*
Y3073D01*
X9571Y2748D02*
X9670D01*
X9621Y2699D02*
Y2797D01*
X9571Y2473D02*
X9670D01*
X9621Y2423D02*
Y2522D01*
X9571Y2197D02*
X9670D01*
X9621Y2148D02*
Y2246D01*
X9571Y1921D02*
X9670D01*
X9621Y1872D02*
Y1971D01*
X9571Y1646D02*
X9670D01*
X9621Y1597D02*
Y1695D01*
X9571Y1370D02*
X9670D01*
X9621Y1321D02*
Y1419D01*
X9572Y1095D02*
X9671D01*
X9622Y1045D02*
Y1144D01*
X9645Y829D02*
X9744D01*
X9694Y780D02*
Y878D01*
X9829Y623D02*
X9927D01*
X9878Y574D02*
Y672D01*
X10075Y500D02*
X10173D01*
X10124Y450D02*
Y549D01*
X10369Y495D02*
X10467D01*
X10418Y445D02*
Y544D01*
X10197Y968D02*
X10295D01*
X10246Y919D02*
Y1017D01*
X10015Y1175D02*
X10114D01*
X10065Y1126D02*
Y1224D01*
X10015Y1451D02*
X10114D01*
X10065Y1402D02*
Y1500D01*
X10015Y1726D02*
X10114D01*
X10065Y1677D02*
Y1776D01*
X10015Y2002D02*
X10114D01*
X10065Y1953D02*
Y2051D01*
X10015Y2278D02*
X10114D01*
X10065Y2228D02*
Y2327D01*
X10015Y2553D02*
X10114D01*
X10065Y2504D02*
Y2602D01*
X10015Y2829D02*
X10114D01*
X10065Y2780D02*
Y2878D01*
X10015Y3104D02*
X10114D01*
X10065Y3055D02*
Y3154D01*
X10015Y3380D02*
X10114D01*
X10065Y3331D02*
Y3429D01*
X10015Y3656D02*
X10114D01*
X10065Y3606D02*
Y3705D01*
X10015Y3931D02*
X10114D01*
X10065Y3882D02*
Y3980D01*
X12441Y1880D02*
X12539D01*
X12490Y1831D02*
Y1929D01*
X11820Y2421D02*
X11919D01*
X11870Y2372D02*
Y2470D01*
X11820Y2126D02*
X11919D01*
X11870Y2077D02*
Y2175D01*
X11811Y1270D02*
X11910D01*
X11860Y1220D02*
Y1319D01*
X11811Y1565D02*
X11910D01*
X11860Y1516D02*
Y1614D01*
X11312Y1565D02*
X11411D01*
X11362Y1516D02*
Y1614D01*
X11312Y1270D02*
X11411D01*
X11362Y1220D02*
Y1319D01*
X11497Y4183D02*
X11595D01*
X11546Y4134D02*
Y4232D01*
X11752Y4183D02*
X11850D01*
X11801Y4134D02*
Y4232D01*
X12011Y4180D02*
X12109D01*
X12060Y4131D02*
Y4229D01*
X11058Y2239D02*
X11157D01*
X11107Y2190D02*
Y2289D01*
X12436Y482D02*
X12534D01*
X12485Y433D02*
Y531D01*
X10476Y3848D02*
X10574D01*
X10525Y3799D02*
Y3897D01*
X11020Y3854D02*
X11119D01*
X11069Y3805D02*
Y3903D01*
X11181Y4163D02*
X11280D01*
X11230Y4114D02*
Y4213D01*
X10701Y4167D02*
X10799D01*
X10750Y4118D02*
Y4217D01*
X11312Y1860D02*
X11411D01*
X11362Y1811D02*
Y1909D01*
X11554Y486D02*
X11653D01*
X11604Y437D02*
Y535D01*
X10075Y236D02*
X10173D01*
X10124Y187D02*
Y285D01*
X11255Y484D02*
X11353D01*
X11304Y435D02*
Y533D01*
X10842Y2377D02*
X10940D01*
X10891Y2328D02*
Y2426D01*
X12441Y3061D02*
X12539D01*
X12490Y3012D02*
Y3110D01*
X5632Y8063D02*
X5731D01*
X5682Y8014D02*
Y8113D01*
X2291Y4843D02*
X2389D01*
X2340Y4793D02*
Y4892D01*
X1270Y5492D02*
X1368D01*
X1319Y5443D02*
Y5541D01*
X1713Y5896D02*
X1811D01*
X1762Y5846D02*
Y5945D01*
X1033Y5915D02*
X1132D01*
X1083Y5866D02*
Y5965D01*
X2293Y5266D02*
X2392D01*
X2343Y5217D02*
Y5315D01*
X6078Y5551D02*
X6176D01*
X6127Y5502D02*
Y5600D01*
X6905Y5098D02*
X7003D01*
X6954Y5049D02*
Y5148D01*
X5939Y5839D02*
X6037D01*
X5988Y5790D02*
Y5888D01*
X4277Y6140D02*
X4376D01*
X4326Y6091D02*
Y6189D01*
X4486Y5913D02*
X4585D01*
X4535Y5864D02*
Y5963D01*
X4055Y5975D02*
X4154D01*
X4105Y5925D02*
Y6024D01*
X2737Y6612D02*
X2835D01*
X2786Y6563D02*
Y6661D01*
X2848Y6246D02*
X2946D01*
X2897Y6197D02*
Y6295D01*
X12096Y10404D02*
X12194D01*
X12145Y10354D02*
Y10453D01*
X2169Y3639D02*
X2268D01*
X2218Y3590D02*
Y3688D01*
X532Y394D02*
X630D01*
X581Y345D02*
Y443D01*
X1152Y392D02*
X1250D01*
X1201Y343D02*
Y441D01*
X2307Y394D02*
X2405D01*
X2356Y345D02*
Y443D01*
X5130Y9484D02*
X5228D01*
X5179Y9435D02*
Y9533D01*
X3589Y8780D02*
X3688D01*
X3638Y8730D02*
Y8829D01*
X8770Y3061D02*
X8868D01*
X8819Y3012D02*
Y3110D01*
X9793Y11181D02*
X9892D01*
X9843Y11132D02*
Y11230D01*
X11729Y11024D02*
X11828D01*
X11779Y10974D02*
Y11073D01*
X5678Y10676D02*
X5777D01*
X5728Y10627D02*
Y10725D01*
X3904Y10633D02*
X4003D01*
X3953Y10584D02*
Y10682D01*
X2063Y10834D02*
X2162D01*
X2113Y10785D02*
Y10883D01*
X7165Y3179D02*
X7264D01*
X7215Y3130D02*
Y3228D01*
X8681Y1575D02*
X8780D01*
X8730Y1526D02*
Y1624D01*
X10370Y236D02*
X10469D01*
X10419Y187D02*
Y285D01*
X11256Y236D02*
X11354D01*
X11305Y187D02*
Y285D01*
X10961Y236D02*
X11059D01*
X11010Y187D02*
Y285D01*
X10665Y236D02*
X10764D01*
X10715Y187D02*
Y285D01*
X12437Y236D02*
X12536D01*
X12486Y187D02*
Y285D01*
X11551Y236D02*
X11650D01*
X11600Y187D02*
Y285D01*
X12441Y2766D02*
X12539D01*
X12490Y2717D02*
Y2815D01*
X12441Y2470D02*
X12539D01*
X12490Y2421D02*
Y2520D01*
X12441Y3652D02*
X12539D01*
X12490Y3602D02*
Y3701D01*
X12441Y3356D02*
X12539D01*
X12490Y3307D02*
Y3406D01*
X8282Y11309D02*
X8380D01*
X8331Y11260D02*
Y11358D01*
X6974Y11191D02*
X7072D01*
X7023Y11141D02*
Y11240D01*
X8809Y3599D02*
X8907D01*
X8858Y3550D02*
Y3648D01*
X5443Y3378D02*
X5541D01*
X5492Y3329D02*
Y3428D01*
X5453Y3764D02*
X5551D01*
X5502Y3715D02*
Y3813D01*
X4872Y3931D02*
X4970D01*
X4921Y3882D02*
Y3980D01*
X4309Y4892D02*
X4408D01*
X4358Y4843D02*
Y4941D01*
X3268Y4548D02*
X3366D01*
X3317Y4498D02*
Y4597D01*
X3268Y4882D02*
X3366D01*
X3317Y4833D02*
Y4931D01*
X659Y6860D02*
X758D01*
X709Y6811D02*
Y6909D01*
X659Y10118D02*
X758D01*
X709Y10069D02*
Y10167D01*
X657Y9547D02*
X755D01*
X706Y9498D02*
Y9597D01*
X1969Y6876D02*
X2067D01*
X2018Y6826D02*
Y6925D01*
X1726Y9554D02*
X1825D01*
X1776Y9505D02*
Y9603D01*
X1726Y10118D02*
X1825D01*
X1776Y10069D02*
Y10167D01*
X3216Y9676D02*
X3315D01*
X3265Y9627D02*
Y9726D01*
X3627Y9948D02*
X3726D01*
X3676Y9899D02*
Y9997D01*
X6260Y9331D02*
X6359D01*
X6309Y9282D02*
Y9380D01*
X4820Y8366D02*
X4918D01*
X4869Y8317D02*
Y8415D01*
X4666Y8669D02*
X4765D01*
X4715Y8619D02*
Y8718D01*
X7717Y5689D02*
X7815D01*
X7766Y5640D02*
Y5738D01*
X12283Y7067D02*
X12382D01*
X12333Y7018D02*
Y7116D01*
X12441Y6870D02*
X12539D01*
X12490Y6821D02*
Y6919D01*
X12441Y7264D02*
X12539D01*
X12490Y7215D02*
Y7313D01*
X12283Y7461D02*
X12382D01*
X12333Y7411D02*
Y7510D01*
X7657Y10709D02*
X7756D01*
X7707Y10659D02*
Y10758D01*
X12281Y7854D02*
X12379D01*
X12330Y7805D02*
Y7904D01*
X12441Y7657D02*
X12539D01*
X12490Y7608D02*
Y7707D01*
X2738Y6870D02*
X2836D01*
X2787Y6821D02*
Y6919D01*
X2736Y7116D02*
X2835D01*
X2786Y7067D02*
Y7166D01*
X2738Y7363D02*
X2836D01*
X2787Y7313D02*
Y7412D01*
X12283Y6673D02*
X12382D01*
X12333Y6624D02*
Y6722D01*
X3583Y8327D02*
X3681D01*
X3632Y8278D02*
Y8376D01*
X6635Y10193D02*
X6733D01*
X6684Y10144D02*
Y10242D01*
X7500Y9656D02*
X7598D01*
X7549Y9606D02*
Y9705D01*
X6513Y9332D02*
X6611D01*
X6562Y9282D02*
Y9381D01*
X7697Y4636D02*
X7795D01*
X7746Y4587D02*
Y4685D01*
X7972Y4183D02*
X8071D01*
X8022Y4134D02*
Y4232D01*
X7972Y10935D02*
X8071D01*
X8022Y10886D02*
Y10984D01*
X8809Y10915D02*
X8907D01*
X8858Y10866D02*
Y10965D01*
X12008Y10935D02*
X12106D01*
X12057Y10886D02*
Y10984D01*
X11171Y10965D02*
X11270D01*
X11220Y10915D02*
Y11014D01*
X10384Y10965D02*
X10482D01*
X10433Y10915D02*
Y11014D01*
X12283Y9429D02*
X12382D01*
X12333Y9380D02*
Y9478D01*
X12281Y9035D02*
X12379D01*
X12330Y8986D02*
Y9085D01*
X12441Y9232D02*
X12539D01*
X12490Y9183D02*
Y9281D01*
X12441Y8839D02*
X12539D01*
X12490Y8789D02*
Y8888D01*
X12441Y10020D02*
X12539D01*
X12490Y9970D02*
Y10069D01*
X12283Y9823D02*
X12382D01*
X12333Y9774D02*
Y9872D01*
X12441Y9626D02*
X12539D01*
X12490Y9577D02*
Y9675D01*
X12281Y8642D02*
X12379D01*
X12330Y8593D02*
Y8691D01*
X12441Y8051D02*
X12539D01*
X12490Y8002D02*
Y8100D01*
X12441Y8445D02*
X12539D01*
X12490Y8396D02*
Y8494D01*
X12283Y5886D02*
X12382D01*
X12333Y5837D02*
Y5935D01*
X12441Y4902D02*
X12539D01*
X12490Y4852D02*
Y4951D01*
X12283Y5098D02*
X12382D01*
X12333Y5049D02*
Y5148D01*
X12441Y5295D02*
X12539D01*
X12490Y5246D02*
Y5344D01*
X12283Y5492D02*
X12382D01*
X12333Y5443D02*
Y5541D01*
X12441Y5689D02*
X12539D01*
X12490Y5640D02*
Y5738D01*
X12441Y6083D02*
X12539D01*
X12490Y6033D02*
Y6132D01*
X12283Y6280D02*
X12382D01*
X12333Y6230D02*
Y6329D01*
X12441Y6476D02*
X12539D01*
X12490Y6427D02*
Y6526D01*
X1053Y3970D02*
X1152D01*
X1102Y3921D02*
Y4019D01*
X659Y4439D02*
X758D01*
X709Y4390D02*
Y4488D01*
X5443Y2992D02*
X5541D01*
X5492Y2943D02*
Y3041D01*
X7717Y6083D02*
X7815D01*
X7766Y6033D02*
Y6132D01*
X7657Y6673D02*
X7756D01*
X7707Y6624D02*
Y6722D01*
X6905Y4470D02*
X7003D01*
X6954Y4421D02*
Y4519D01*
X5443Y2608D02*
X5541D01*
X5492Y2559D02*
Y2657D01*
X6513Y2854D02*
X6611D01*
X6562Y2805D02*
Y2904D01*
X8730Y5591D02*
X8829D01*
X8780Y5541D02*
Y5640D01*
X7421Y3806D02*
X7520D01*
X7470Y3757D02*
Y3855D01*
X7697Y7657D02*
X7795D01*
X7746Y7608D02*
Y7707D01*
X7500Y8051D02*
X7598D01*
X7549Y8002D02*
Y8100D01*
X7500Y8839D02*
X7598D01*
X7549Y8789D02*
Y8888D01*
X7284Y9036D02*
X7382D01*
X7333Y8987D02*
Y9085D01*
X7697Y9035D02*
X7795D01*
X7746Y8986D02*
Y9085D01*
X7500Y9232D02*
X7598D01*
X7549Y9183D02*
Y9281D01*
X7697Y8248D02*
X7795D01*
X7746Y8199D02*
Y8297D01*
X7697Y8642D02*
X7795D01*
X7746Y8593D02*
Y8691D01*
X7697Y9429D02*
X7795D01*
X7746Y9380D02*
Y9478D01*
X7697Y9823D02*
X7795D01*
X7746Y9774D02*
Y9872D01*
X5935Y4764D02*
X6033D01*
X5984Y4715D02*
Y4813D01*
X6191Y4508D02*
X6289D01*
X6240Y4459D02*
Y4557D01*
X4486Y3652D02*
X4585D01*
X4535Y3603D02*
Y3701D01*
X1122Y6860D02*
X1220D01*
X1171Y6811D02*
Y6909D01*
X896Y7781D02*
X994D01*
X945Y7732D02*
Y7830D01*
X6661Y8210D02*
X6759D01*
X6710Y8161D02*
Y8259D01*
X6663Y7844D02*
X6762D01*
X6713Y7795D02*
Y7894D01*
X7274Y9360D02*
X7372D01*
X7323Y9311D02*
Y9409D01*
X6073Y2438D02*
X6171D01*
X6122Y2389D02*
Y2487D01*
X5866Y2608D02*
X5964D01*
X5915Y2559D02*
Y2658D01*
X6270Y2608D02*
X6368D01*
X6319Y2559D02*
Y2658D01*
X6073Y3415D02*
X6171D01*
X6122Y3366D02*
Y3465D01*
X6901Y4213D02*
X7000D01*
X6950Y4163D02*
Y4262D01*
X12441Y3947D02*
X12539D01*
X12490Y3898D02*
Y3996D01*
X12441Y4242D02*
X12539D01*
X12490Y4193D02*
Y4291D01*
X7091Y7910D02*
X7189D01*
X7140Y7861D02*
Y7959D01*
X7337Y8550D02*
X7435D01*
X7386Y8501D02*
Y8599D01*
X8809Y4183D02*
X8907D01*
X8858Y4134D02*
Y4232D01*
X7969Y3806D02*
X8068D01*
X8019Y3757D02*
Y3855D01*
X12283Y4459D02*
X12382D01*
X12333Y4409D02*
Y4508D01*
X11250Y7165D02*
X11348D01*
X11299Y7116D02*
Y7215D01*
X10620Y4882D02*
X10718D01*
X10669Y4833D02*
Y4931D01*
X11250Y10236D02*
X11348D01*
X11299Y10187D02*
Y10285D01*
X11250Y8740D02*
X11348D01*
X11299Y8691D02*
Y8789D01*
X9360Y6378D02*
X9459D01*
X9409Y6329D02*
Y6427D01*
X9990Y5591D02*
X10089D01*
X10039Y5541D02*
Y5640D01*
X9360Y7953D02*
X9459D01*
X9409Y7904D02*
Y8002D01*
X10620Y6378D02*
X10718D01*
X10669Y6329D02*
Y6427D01*
X9990Y8740D02*
X10089D01*
X10039Y8691D02*
Y8789D01*
X10620Y9528D02*
X10718D01*
X10669Y9478D02*
Y9577D01*
X8730Y7165D02*
X8829D01*
X8780Y7116D02*
Y7215D01*
X9360Y10236D02*
X9459D01*
X9409Y10187D02*
Y10285D01*
X11250Y5591D02*
X11348D01*
X11299Y5541D02*
Y5640D01*
X8730Y8740D02*
X8829D01*
X8780Y8691D02*
Y8789D01*
X8730Y10236D02*
X8829D01*
X8780Y10187D02*
Y10285D01*
X9360Y4882D02*
X9459D01*
X9409Y4833D02*
Y4931D01*
X9360Y9528D02*
X9459D01*
X9409Y9478D02*
Y9577D01*
X9990Y7165D02*
X10089D01*
X10039Y7116D02*
Y7215D01*
X10620Y7953D02*
X10718D01*
X10669Y7904D02*
Y8002D01*
X11250Y9528D02*
X11348D01*
X11299Y9478D02*
Y9577D01*
X10620Y10236D02*
X10718D01*
X10669Y10187D02*
Y10285D01*
X8730Y6378D02*
X8829D01*
X8780Y6329D02*
Y6427D01*
X11250Y7953D02*
X11348D01*
X11299Y7904D02*
Y8002D01*
X11250Y4882D02*
X11348D01*
X11299Y4833D02*
Y4931D01*
X10620Y5591D02*
X10718D01*
X10669Y5541D02*
Y5640D01*
X8730Y7953D02*
X8829D01*
X8780Y7904D02*
Y8002D01*
X9990Y10236D02*
X10089D01*
X10039Y10187D02*
Y10285D01*
X9990Y6378D02*
X10089D01*
X10039Y6329D02*
Y6427D01*
X10620Y8740D02*
X10718D01*
X10669Y8691D02*
Y8789D01*
X11250Y6378D02*
X11348D01*
X11299Y6329D02*
Y6427D01*
X9360Y8740D02*
X9459D01*
X9409Y8691D02*
Y8789D01*
X9360Y5591D02*
X9459D01*
X9409Y5541D02*
Y5640D01*
X9990Y7953D02*
X10089D01*
X10039Y7904D02*
Y8002D01*
X8730Y4882D02*
X8829D01*
X8780Y4833D02*
Y4931D01*
X9360Y7165D02*
X9459D01*
X9409Y7116D02*
Y7215D01*
X9990Y9528D02*
X10089D01*
X10039Y9478D02*
Y9577D01*
X10620Y7165D02*
X10718D01*
X10669Y7116D02*
Y7215D01*
X8730Y9528D02*
X8829D01*
X8780Y9478D02*
Y9577D01*
X9990Y4880D02*
X10089D01*
X10039Y4831D02*
Y4929D01*
X10020Y10965D02*
X10118D01*
X10069Y10915D02*
Y11014D01*
X4656Y6516D02*
X4754D01*
X4705Y6467D02*
Y6565D01*
X4666Y6762D02*
X4764D01*
X4715Y6713D02*
Y6811D01*
X4486Y6307D02*
X4585D01*
X4535Y6257D02*
Y6356D01*
X4172Y3937D02*
X4270D01*
X4221Y3888D02*
Y3986D01*
X-1388Y1127D02*
X-1289D01*
X-1339Y1078D02*
Y1177D01*
X1152Y1043D02*
X1250D01*
X1201Y994D02*
Y1093D01*
X-1442Y2581D02*
X-1343D01*
X-1392Y2532D02*
Y2630D01*
X-1442Y591D02*
X-1343D01*
X-1392Y541D02*
Y640D01*
X-1528Y7111D02*
X-1430D01*
X-1479Y7062D02*
Y7160D01*
X-3922Y6476D02*
X-3824D01*
X-3873Y6427D02*
Y6526D01*
X-4262Y6951D02*
X-4163D01*
X-4213Y6902D02*
Y7000D01*
X659Y4751D02*
X758D01*
X709Y4702D02*
Y4801D01*
X1053Y4350D02*
X1152D01*
X1102Y4301D02*
Y4400D01*
X-3492Y3232D02*
X-3394D01*
X-3443Y3182D02*
Y3281D01*
X-3504Y5502D02*
X-3406D01*
X-3455Y5453D02*
Y5551D01*
X1132Y2520D02*
X1230D01*
X1181Y2470D02*
Y2569D01*
X2037Y7966D02*
X2136D01*
X2087Y7916D02*
Y8015D01*
X-2333Y3232D02*
X-2234D01*
X-2283Y3182D02*
Y3281D01*
X1132Y2992D02*
X1230D01*
X1181Y2943D02*
Y3041D01*
X-2333Y6453D02*
X-2234D01*
X-2283Y6404D02*
Y6503D01*
X-3504Y9469D02*
X-3406D01*
X-3455Y9419D02*
Y9518D01*
X10994Y2958D02*
X11114D01*
X11054Y2898D02*
Y3018D01*
X10994Y3194D02*
X11114D01*
X11054Y3134D02*
Y3254D01*
X10757Y3194D02*
X10877D01*
X10817Y3134D02*
Y3254D01*
X10757Y2958D02*
X10877D01*
X10817Y2898D02*
Y3018D01*
X11230Y2958D02*
X11350D01*
X11290Y2898D02*
Y3018D01*
X11230Y3194D02*
X11350D01*
X11290Y3134D02*
Y3254D01*
X11466Y3194D02*
X11586D01*
X11526Y3134D02*
Y3254D01*
X11466Y2958D02*
X11586D01*
X11526Y2898D02*
Y3018D01*
X6927Y7165D02*
X7025D01*
X6976Y7116D02*
Y7215D01*
X5660Y7146D02*
X5758D01*
X5709Y7096D02*
Y7195D01*
X4882Y7343D02*
X4980D01*
X4931Y7293D02*
Y7392D01*
X4348Y8497D02*
X4446D01*
X4397Y8448D02*
Y8546D01*
X-2900Y7011D02*
X-2802D01*
X-2851Y6961D02*
Y7060D01*
X4656Y10630D02*
X4754D01*
X4705Y10581D02*
Y10679D01*
X-1528Y7802D02*
X-1430D01*
X-1479Y7753D02*
Y7852D01*
X4369Y10630D02*
X4467D01*
X4418Y10581D02*
Y10679D01*
X-1528Y7487D02*
X-1430D01*
X-1479Y7438D02*
Y7536D01*
X3965Y7966D02*
X4063D01*
X4014Y7916D02*
Y8015D01*
X2037Y11260D02*
X2136D01*
X2087Y11210D02*
Y11309D01*
X2041Y10385D02*
X2140D01*
X2091Y10336D02*
Y10434D01*
X-3504Y11299D02*
X-3406D01*
X-3455Y11250D02*
Y11348D01*
X-2504Y11299D02*
X-2406D01*
X-2455Y11250D02*
Y11348D01*
X6201Y4764D02*
X6299D01*
X6250Y4715D02*
Y4813D01*
X5935Y4508D02*
X6033D01*
X5984Y4459D02*
Y4557D01*
X-3755Y7437D02*
X-3656D01*
X-3706Y7387D02*
Y7486D01*
X-3755Y7870D02*
X-3656D01*
X-3706Y7821D02*
Y7919D01*
X-3322Y7437D02*
X-3223D01*
X-3272Y7387D02*
Y7486D01*
X-3322Y7870D02*
X-3223D01*
X-3272Y7821D02*
Y7919D01*
X3589Y6869D02*
X3688D01*
X3638Y6820D02*
Y6918D01*
X3904Y6869D02*
X4003D01*
X3953Y6820D02*
Y6918D01*
X3904Y7184D02*
X4003D01*
X3953Y7135D02*
Y7233D01*
X3589Y7184D02*
X3688D01*
X3638Y7135D02*
Y7233D01*
M02*
