G04*
G04 #@! TF.GenerationSoftware,Altium Limited,Altium Designer,20.0.9 (164)*
G04*
G04 Layer_Physical_Order=4*
G04 Layer_Color=16711680*
%FSLAX24Y24*%
%MOIN*%
G70*
G01*
G75*
%ADD11C,0.0079*%
%ADD12C,0.0059*%
%ADD13C,0.0098*%
%ADD15C,0.0118*%
%ADD19C,0.0049*%
%ADD43R,0.0945X0.0299*%
%ADD55R,0.0118X0.0197*%
%ADD119C,0.0236*%
%ADD122C,0.0354*%
%ADD123C,0.1181*%
%ADD128C,0.0197*%
%ADD138C,0.0390*%
%ADD139O,0.0354X0.0630*%
%ADD140C,0.0591*%
%ADD141R,0.0591X0.0591*%
%ADD142C,0.0197*%
%ADD143C,0.0240*%
G36*
X12500Y11680D02*
Y10208D01*
X12490Y10200D01*
X12421Y10187D01*
X12362Y10147D01*
X12323Y10089D01*
X12310Y10020D01*
X12314Y10000D01*
X12264Y9990D01*
X12205Y9951D01*
X12189Y9927D01*
X12187Y9926D01*
X12132Y9931D01*
X12122Y9945D01*
X11545Y10522D01*
X11564Y10568D01*
X11979D01*
X11990Y10558D01*
Y10490D01*
X11978Y10473D01*
X11965Y10404D01*
X11978Y10334D01*
X12018Y10276D01*
X12076Y10237D01*
X12145Y10223D01*
X12214Y10237D01*
X12273Y10276D01*
X12312Y10334D01*
X12326Y10404D01*
X12312Y10473D01*
X12273Y10531D01*
X12271Y10533D01*
Y10616D01*
X12260Y10670D01*
X12230Y10715D01*
X12137Y10808D01*
X12091Y10838D01*
X12037Y10849D01*
X7815D01*
X7776Y10876D01*
X7707Y10889D01*
X7638Y10876D01*
X7579Y10836D01*
X7540Y10778D01*
X7526Y10709D01*
X7535Y10662D01*
X7502Y10612D01*
X6546D01*
X6546Y10612D01*
X6506Y10604D01*
X6472Y10581D01*
X6472Y10581D01*
X6164Y10274D01*
X4199D01*
X4199Y10274D01*
X4158Y10266D01*
X4124Y10243D01*
X4124Y10243D01*
X2343Y8462D01*
X2321Y8428D01*
X2313Y8388D01*
X2313Y8388D01*
Y8027D01*
X2280Y7991D01*
X2280Y7991D01*
Y7991D01*
X2263Y7989D01*
X2262Y7990D01*
X2254Y8035D01*
X2214Y8093D01*
X2156Y8132D01*
X2087Y8146D01*
X2017Y8132D01*
X1959Y8093D01*
X1920Y8035D01*
X1906Y7966D01*
X1920Y7896D01*
X1959Y7838D01*
X2017Y7799D01*
X2087Y7785D01*
X2156Y7799D01*
X2214Y7838D01*
X2254Y7896D01*
X2262Y7941D01*
X2263Y7942D01*
X2280Y7940D01*
Y7940D01*
X2280Y7940D01*
X2313Y7904D01*
Y6980D01*
X2313Y6980D01*
X2321Y6940D01*
X2343Y6906D01*
X2611Y6639D01*
X2606Y6612D01*
X2619Y6543D01*
X2658Y6484D01*
X2717Y6445D01*
X2759Y6437D01*
X2758Y6430D01*
X2758Y6426D01*
X2758Y6425D01*
X2758Y6424D01*
X2759Y6418D01*
X2759Y6415D01*
X2760Y6412D01*
X2761Y6404D01*
X2763Y6400D01*
X2764Y6395D01*
X2769Y6374D01*
X2730Y6315D01*
X2716Y6246D01*
X2730Y6177D01*
X2769Y6118D01*
X2765Y6100D01*
X2761Y6091D01*
X2761Y6090D01*
X2760Y6089D01*
X2758Y6075D01*
X2754Y6061D01*
X2755Y6060D01*
X2754Y6058D01*
Y6030D01*
X2704Y6015D01*
X2687Y6041D01*
X2628Y6080D01*
X2559Y6094D01*
X2490Y6080D01*
X2431Y6041D01*
X2392Y5982D01*
X2378Y5913D01*
X2392Y5844D01*
X2431Y5786D01*
X2490Y5746D01*
X2559Y5733D01*
X2628Y5746D01*
X2687Y5786D01*
X2704Y5812D01*
X2754Y5797D01*
Y5552D01*
X2760Y5521D01*
X2778Y5495D01*
X2804Y5478D01*
X2835Y5472D01*
X3216D01*
X3229Y5475D01*
X3243Y5477D01*
X3244Y5478D01*
X3246Y5478D01*
X3258Y5486D01*
X3269Y5493D01*
X3271Y5494D01*
X3272Y5495D01*
X3280Y5507D01*
X3288Y5518D01*
X3300Y5543D01*
X3327Y5538D01*
X3396Y5552D01*
X3455Y5591D01*
X3459Y5597D01*
X3509Y5582D01*
Y5433D01*
X3528Y5388D01*
X3573Y5369D01*
X3618Y5388D01*
X3637Y5433D01*
Y5472D01*
X4724Y5472D01*
X4755Y5478D01*
X4781Y5495D01*
X4799Y5521D01*
X4805Y5552D01*
Y6322D01*
X4805Y6322D01*
X4805Y6322D01*
X4802Y6338D01*
X4799Y6353D01*
X4798Y6353D01*
X4798Y6353D01*
X4794Y6363D01*
X4833Y6388D01*
X4872Y6447D01*
X4886Y6516D01*
X4882Y6536D01*
X5169Y6823D01*
X5219Y6804D01*
Y5529D01*
X3391Y3701D01*
X3360Y3655D01*
X3350Y3601D01*
Y3229D01*
X2939D01*
Y3121D01*
X2829D01*
X2783Y3112D01*
X2744Y3086D01*
X2744Y3086D01*
X2556Y2897D01*
X2506Y2918D01*
Y3229D01*
X1404D01*
Y3097D01*
X1324D01*
X1309Y3120D01*
X1250Y3159D01*
X1181Y3173D01*
X1112Y3159D01*
X1053Y3120D01*
X1014Y3061D01*
X1000Y2992D01*
X1006Y2966D01*
X745Y2706D01*
X723Y2671D01*
X715Y2631D01*
X715Y2631D01*
Y1404D01*
X479Y1168D01*
X394D01*
Y3871D01*
X955D01*
X975Y3842D01*
X1033Y3803D01*
X1102Y3789D01*
X1171Y3803D01*
X1230Y3842D01*
X1269Y3901D01*
X1283Y3970D01*
X1269Y4039D01*
X1230Y4098D01*
X1177Y4134D01*
X1174Y4160D01*
X1177Y4187D01*
X1230Y4223D01*
X1269Y4281D01*
X1283Y4350D01*
X1269Y4420D01*
X1230Y4478D01*
X1171Y4517D01*
X1102Y4531D01*
X1033Y4517D01*
X975Y4478D01*
X935Y4420D01*
X888Y4431D01*
X889Y4439D01*
X876Y4508D01*
X836Y4567D01*
X831Y4570D01*
Y4612D01*
X838Y4626D01*
X853Y4648D01*
X882Y4654D01*
X916Y4677D01*
X939Y4711D01*
X947Y4751D01*
X939Y4792D01*
X916Y4826D01*
X882Y4849D01*
X853Y4854D01*
X836Y4879D01*
X778Y4918D01*
X709Y4932D01*
X640Y4918D01*
X581Y4879D01*
X542Y4821D01*
X528Y4751D01*
X542Y4682D01*
X581Y4624D01*
X567Y4577D01*
X546Y4554D01*
X394D01*
Y7408D01*
X3727Y10741D01*
X4226D01*
X4250Y10691D01*
X4238Y10630D01*
X4251Y10561D01*
X4290Y10502D01*
X4349Y10463D01*
X4418Y10449D01*
X4487Y10463D01*
X4526Y10489D01*
X4562Y10498D01*
X4597Y10489D01*
X4636Y10463D01*
X4705Y10449D01*
X4774Y10463D01*
X4833Y10502D01*
X4872Y10561D01*
X4886Y10630D01*
X4872Y10699D01*
X4833Y10758D01*
X4774Y10797D01*
X4761Y10800D01*
Y10890D01*
X4752Y10933D01*
X4728Y10968D01*
X4590Y11107D01*
X4554Y11131D01*
X4512Y11139D01*
X3607D01*
X3565Y11131D01*
X3529Y11107D01*
X440Y8017D01*
X394Y8036D01*
Y10609D01*
X1611D01*
X1963Y10257D01*
X2021Y10218D01*
X2091Y10204D01*
X2160Y10218D01*
X2218Y10257D01*
X2257Y10316D01*
X2271Y10385D01*
X2257Y10454D01*
X2218Y10513D01*
X1813Y10918D01*
X1755Y10957D01*
X1686Y10971D01*
X394D01*
Y11079D01*
X2087D01*
X2156Y11093D01*
X2214Y11132D01*
X2254Y11191D01*
X2267Y11260D01*
X2254Y11329D01*
X2214Y11387D01*
X2156Y11427D01*
X2087Y11440D01*
X394D01*
Y11680D01*
X11811Y11680D01*
X12500Y11680D01*
D02*
G37*
G36*
X11414Y10216D02*
X11395Y10169D01*
X8399D01*
X8312Y10257D01*
X8331Y10303D01*
X11327D01*
X11414Y10216D01*
D02*
G37*
G36*
X7526Y9840D02*
X7523Y9831D01*
X7480Y9822D01*
X7421Y9783D01*
X7382Y9725D01*
X7369Y9656D01*
X7382Y9586D01*
X7421Y9528D01*
X7480Y9489D01*
X7549Y9475D01*
X7618Y9489D01*
X7677Y9528D01*
X7716Y9586D01*
X7728Y9646D01*
X7746Y9642D01*
X7815Y9656D01*
X7874Y9695D01*
X7913Y9754D01*
X7927Y9823D01*
X7970Y9860D01*
X7992Y9861D01*
X8164Y9689D01*
X8164Y9689D01*
X8198Y9666D01*
X8238Y9658D01*
X8238Y9658D01*
X11369D01*
X11450Y9578D01*
Y7451D01*
X11450Y7451D01*
X11458Y7410D01*
X11481Y7376D01*
X12157Y6700D01*
X12152Y6673D01*
X12166Y6604D01*
X12205Y6545D01*
X12264Y6506D01*
X12333Y6493D01*
X12402Y6506D01*
X12460Y6545D01*
X12468Y6558D01*
X12499Y6593D01*
X12549Y6594D01*
X12598Y6544D01*
X12598Y131D01*
X394Y131D01*
Y485D01*
X1718D01*
X1718Y485D01*
X1759Y493D01*
X1793Y516D01*
X2029Y752D01*
X2043Y772D01*
X2506D01*
Y1080D01*
X2806Y1380D01*
X2806Y1380D01*
X2829Y1414D01*
X2837Y1454D01*
X2837Y1454D01*
Y2601D01*
X2907Y2672D01*
X4247D01*
X4247Y2672D01*
X4287Y2680D01*
X4321Y2703D01*
X5567Y3948D01*
X5567Y3948D01*
X5589Y3982D01*
X5598Y4022D01*
X5598Y4022D01*
Y7245D01*
X6496Y8143D01*
X6551Y8129D01*
X6582Y8082D01*
X6641Y8043D01*
X6710Y8029D01*
X6779Y8043D01*
X6838Y8082D01*
X6877Y8141D01*
X6891Y8210D01*
X6877Y8279D01*
X6838Y8338D01*
X6805Y8360D01*
X6795Y8415D01*
X6819Y8445D01*
X7243D01*
X7258Y8422D01*
X7317Y8383D01*
X7386Y8369D01*
X7455Y8383D01*
X7514Y8422D01*
X7553Y8481D01*
X7566Y8550D01*
X7554Y8612D01*
X7553Y8620D01*
X7582Y8665D01*
X7618Y8672D01*
X7677Y8711D01*
X7716Y8769D01*
X7724Y8808D01*
X7746Y8855D01*
X7815Y8869D01*
X7874Y8908D01*
X7913Y8966D01*
X7927Y9035D01*
X7913Y9105D01*
X7874Y9163D01*
X7815Y9202D01*
X7746Y9216D01*
X7724Y9263D01*
X7716Y9301D01*
X7677Y9360D01*
X7618Y9399D01*
X7549Y9413D01*
X7480Y9399D01*
X7421Y9360D01*
X7382Y9301D01*
X7369Y9232D01*
X7321Y9214D01*
X7264Y9203D01*
X7205Y9164D01*
X7166Y9105D01*
X7152Y9036D01*
X7166Y8967D01*
X7205Y8908D01*
X7264Y8869D01*
X7333Y8855D01*
X7373Y8819D01*
X7381Y8777D01*
X7382Y8769D01*
X7353Y8724D01*
X7317Y8717D01*
X7258Y8678D01*
X7243Y8655D01*
X6753D01*
X6753Y8655D01*
X6713Y8647D01*
X6679Y8625D01*
X6679Y8625D01*
X5546Y7492D01*
X5500Y7511D01*
Y7604D01*
X5781Y7885D01*
X5811Y7931D01*
X5814Y7942D01*
X5849Y7994D01*
X5862Y8063D01*
X5849Y8133D01*
X5809Y8191D01*
X5751Y8230D01*
X5682Y8244D01*
X5612Y8230D01*
X5554Y8191D01*
X5515Y8133D01*
X5501Y8063D01*
X5511Y8013D01*
X5264Y7765D01*
X5248Y7767D01*
X5214Y7782D01*
Y8615D01*
X6169Y9571D01*
X6853D01*
X6853Y9571D01*
X6893Y9579D01*
X6928Y9602D01*
X7216Y9890D01*
X7492D01*
X7526Y9840D01*
D02*
G37*
G36*
X4724Y6919D02*
X4715Y6910D01*
X4704Y6909D01*
X4694Y6908D01*
X4683Y6906D01*
X4673Y6904D01*
X4663Y6901D01*
X4653Y6897D01*
X4644Y6892D01*
X4635Y6886D01*
X4626Y6880D01*
X4618Y6874D01*
X4610Y6867D01*
X4603Y6859D01*
X4597Y6851D01*
X4591Y6842D01*
X4585Y6833D01*
X4580Y6824D01*
X4576Y6814D01*
X4573Y6804D01*
X4570Y6794D01*
X4569Y6783D01*
X4567Y6773D01*
X4567Y6762D01*
X4567Y6752D01*
X4569Y6741D01*
X4570Y6731D01*
X4573Y6721D01*
X4576Y6711D01*
X4580Y6701D01*
X4585Y6691D01*
X4591Y6682D01*
X4597Y6674D01*
X4604Y6659D01*
X4606Y6642D01*
X4602Y6626D01*
X4593Y6613D01*
X4587Y6605D01*
X4581Y6596D01*
X4575Y6587D01*
X4571Y6577D01*
X4567Y6568D01*
X4563Y6558D01*
X4561Y6547D01*
X4559Y6537D01*
X4558Y6527D01*
X4557Y6516D01*
X4558Y6506D01*
X4559Y6495D01*
X4561Y6485D01*
X4563Y6474D01*
X4567Y6464D01*
X4571Y6455D01*
X4575Y6445D01*
X4581Y6436D01*
X4587Y6428D01*
X4593Y6419D01*
X4600Y6412D01*
X4608Y6404D01*
X4616Y6398D01*
X4625Y6392D01*
X4634Y6386D01*
X4644Y6382D01*
X4653Y6378D01*
X4663Y6374D01*
X4674Y6372D01*
X4684Y6370D01*
X4694Y6369D01*
X4705Y6368D01*
X4724Y6322D01*
Y5552D01*
X3632Y5552D01*
Y5709D01*
X3632Y5715D01*
X3631Y5722D01*
X3629Y5728D01*
X3626Y5734D01*
X3623Y5740D01*
X3619Y5746D01*
X3615Y5750D01*
X3610Y5755D01*
X3604Y5759D01*
X3598Y5762D01*
X3592Y5764D01*
X3586Y5766D01*
X3579Y5767D01*
X3573Y5768D01*
X3566Y5767D01*
X3560Y5766D01*
X3553Y5764D01*
X3547Y5762D01*
X3541Y5759D01*
X3536Y5755D01*
X3531Y5750D01*
X3527Y5746D01*
X3523Y5741D01*
X3517Y5740D01*
X3501Y5739D01*
X3471Y5749D01*
X3471Y5750D01*
X3469Y5760D01*
X3465Y5770D01*
X3461Y5780D01*
X3456Y5789D01*
X3451Y5798D01*
X3445Y5807D01*
X3438Y5815D01*
X3431Y5823D01*
X3424Y5830D01*
X3415Y5837D01*
X3407Y5843D01*
X3398Y5848D01*
X3388Y5853D01*
X3378Y5857D01*
X3368Y5860D01*
X3358Y5863D01*
X3348Y5865D01*
X3337Y5866D01*
X3327Y5866D01*
X3316Y5866D01*
X3306Y5865D01*
X3295Y5863D01*
X3285Y5860D01*
X3275Y5857D01*
X3265Y5853D01*
X3256Y5848D01*
X3247Y5843D01*
X3238Y5837D01*
X3230Y5830D01*
X3222Y5823D01*
X3215Y5815D01*
X3209Y5807D01*
X3202Y5798D01*
X3197Y5789D01*
X3192Y5780D01*
X3188Y5770D01*
X3185Y5760D01*
X3182Y5750D01*
X3181Y5740D01*
X3179Y5729D01*
X3179Y5719D01*
X3179Y5708D01*
X3181Y5697D01*
X3182Y5687D01*
X3185Y5677D01*
X3188Y5667D01*
X3192Y5657D01*
X3197Y5648D01*
X3202Y5639D01*
X3209Y5630D01*
X3215Y5622D01*
X3222Y5614D01*
X3230Y5607D01*
X3236Y5602D01*
X3236Y5596D01*
X3216Y5552D01*
X2835D01*
Y6058D01*
X2838Y6067D01*
X2844Y6074D01*
X2862Y6088D01*
X2885Y6099D01*
X2886Y6099D01*
X2897Y6098D01*
X2907Y6099D01*
X2918Y6100D01*
X2928Y6102D01*
X2938Y6104D01*
X2948Y6108D01*
X2958Y6112D01*
X2968Y6116D01*
X2977Y6122D01*
X2985Y6128D01*
X2994Y6134D01*
X3001Y6142D01*
X3008Y6149D01*
X3015Y6158D01*
X3021Y6166D01*
X3026Y6175D01*
X3031Y6185D01*
X3035Y6194D01*
X3039Y6204D01*
X3041Y6215D01*
X3043Y6225D01*
X3044Y6236D01*
X3045Y6246D01*
X3044Y6257D01*
X3043Y6267D01*
X3041Y6277D01*
X3039Y6288D01*
X3035Y6298D01*
X3031Y6307D01*
X3026Y6317D01*
X3021Y6326D01*
X3015Y6335D01*
X3008Y6343D01*
X3001Y6351D01*
X2994Y6358D01*
X2985Y6364D01*
X2977Y6370D01*
X2968Y6376D01*
X2958Y6380D01*
X2948Y6384D01*
X2938Y6388D01*
X2928Y6390D01*
X2918Y6392D01*
X2907Y6393D01*
X2897Y6394D01*
X2886Y6393D01*
X2885Y6393D01*
X2862Y6404D01*
X2844Y6418D01*
X2838Y6425D01*
X2838Y6426D01*
X2838Y6431D01*
X2848Y6478D01*
X2857Y6483D01*
X2866Y6488D01*
X2875Y6494D01*
X2883Y6501D01*
X2891Y6508D01*
X2898Y6515D01*
X2904Y6524D01*
X2910Y6532D01*
X2916Y6541D01*
X2921Y6551D01*
X2925Y6561D01*
X2928Y6571D01*
X2930Y6581D01*
X2932Y6591D01*
X2934Y6602D01*
X2934Y6612D01*
X2934Y6623D01*
X2932Y6633D01*
X2930Y6644D01*
X2928Y6654D01*
X2925Y6664D01*
X2921Y6674D01*
X2916Y6683D01*
X2910Y6692D01*
X2904Y6701D01*
X2899Y6707D01*
X2896Y6711D01*
X2896Y6712D01*
X2891Y6732D01*
X2891Y6752D01*
X2897Y6770D01*
X2898Y6773D01*
X2899Y6774D01*
X2905Y6782D01*
X2911Y6790D01*
X2917Y6799D01*
X2921Y6809D01*
X2925Y6818D01*
X2929Y6828D01*
X2931Y6839D01*
X2933Y6849D01*
X2934Y6860D01*
X2935Y6870D01*
X2934Y6881D01*
X2933Y6891D01*
X2931Y6901D01*
X2929Y6912D01*
X2925Y6922D01*
X2921Y6931D01*
X2917Y6941D01*
X2911Y6950D01*
X2905Y6959D01*
X2904Y6960D01*
X2899Y6967D01*
X2891Y6984D01*
X2890Y7001D01*
X2896Y7018D01*
X2904Y7028D01*
X2910Y7037D01*
X2915Y7046D01*
X2920Y7055D01*
X2924Y7065D01*
X2927Y7075D01*
X2930Y7085D01*
X2932Y7095D01*
X2933Y7106D01*
X2933Y7116D01*
X2933Y7127D01*
X2932Y7138D01*
X2930Y7148D01*
X2927Y7158D01*
X2924Y7168D01*
X2920Y7178D01*
X2915Y7187D01*
X2910Y7196D01*
X2904Y7205D01*
X2897Y7215D01*
X2890Y7232D01*
X2891Y7248D01*
X2899Y7266D01*
X2904Y7273D01*
X2905Y7274D01*
X2911Y7283D01*
X2917Y7292D01*
X2921Y7301D01*
X2925Y7311D01*
X2929Y7321D01*
X2931Y7331D01*
X2933Y7342D01*
X2934Y7352D01*
X2935Y7363D01*
X2934Y7373D01*
X2933Y7384D01*
X2931Y7394D01*
X2929Y7404D01*
X2925Y7414D01*
X2921Y7424D01*
X2917Y7433D01*
X2911Y7442D01*
X2905Y7451D01*
X2899Y7459D01*
X2892Y7467D01*
X2884Y7474D01*
X2876Y7481D01*
X2867Y7487D01*
X2861Y7490D01*
Y7992D01*
X3818Y7992D01*
X3829Y7989D01*
X3866Y7966D01*
X3867Y7955D01*
X3868Y7945D01*
X3870Y7934D01*
X3872Y7924D01*
X3876Y7914D01*
X3880Y7904D01*
X3884Y7895D01*
X3890Y7886D01*
X3896Y7877D01*
X3902Y7869D01*
X3910Y7861D01*
X3917Y7854D01*
X3926Y7847D01*
X3934Y7841D01*
X3943Y7836D01*
X3953Y7831D01*
X3962Y7827D01*
X3972Y7824D01*
X3983Y7821D01*
X3993Y7819D01*
X4004Y7818D01*
X4014Y7818D01*
X4025Y7818D01*
X4035Y7819D01*
X4045Y7821D01*
X4056Y7824D01*
X4066Y7827D01*
X4075Y7831D01*
X4085Y7836D01*
X4094Y7841D01*
X4103Y7847D01*
X4111Y7854D01*
X4119Y7861D01*
X4126Y7869D01*
X4132Y7877D01*
X4138Y7886D01*
X4144Y7895D01*
X4148Y7904D01*
X4153Y7914D01*
X4156Y7924D01*
X4158Y7934D01*
X4160Y7945D01*
X4161Y7955D01*
X4162Y7966D01*
X4199Y7989D01*
X4210Y7992D01*
X4724D01*
Y6919D01*
D02*
G37*
G36*
X4878Y9721D02*
X3658Y8502D01*
X3632Y8507D01*
X3563Y8494D01*
X3504Y8454D01*
X3465Y8396D01*
X3451Y8327D01*
X3465Y8258D01*
X3504Y8199D01*
X3563Y8160D01*
X3632Y8146D01*
X3701Y8160D01*
X3760Y8199D01*
X3799Y8258D01*
X3813Y8327D01*
X3807Y8353D01*
X5123Y9669D01*
X5904D01*
X5923Y9623D01*
X5034Y8733D01*
X5011Y8699D01*
X5003Y8659D01*
X5003Y8659D01*
Y7560D01*
X4953Y7519D01*
X4931Y7523D01*
X4862Y7509D01*
X4849Y7501D01*
X4805Y7524D01*
Y7992D01*
X4799Y8023D01*
X4781Y8049D01*
X4755Y8066D01*
X4724Y8072D01*
X4210D01*
X4197Y8070D01*
X4185Y8068D01*
X4174Y8065D01*
X4166Y8060D01*
X4164Y8060D01*
X4142Y8093D01*
X4083Y8132D01*
X4014Y8146D01*
X3945Y8132D01*
X3886Y8093D01*
X3864Y8060D01*
X3862Y8060D01*
X3854Y8065D01*
X3843Y8068D01*
X3831Y8070D01*
X3818Y8072D01*
X2892Y8072D01*
Y8296D01*
X4365Y9768D01*
X4858D01*
X4878Y9721D01*
D02*
G37*
G36*
X-3062Y7205D02*
X-3937Y7205D01*
X-3937Y8101D01*
X-3062Y8101D01*
X-3062Y7205D01*
D02*
G37*
G36*
X5387Y5234D02*
Y4066D01*
X4203Y2882D01*
X4041D01*
Y3229D01*
X3631D01*
Y3543D01*
X3995Y3907D01*
X4049Y3891D01*
X4054Y3868D01*
X4093Y3809D01*
X4152Y3770D01*
X4221Y3756D01*
X4290Y3770D01*
X4349Y3809D01*
X4388Y3868D01*
X4401Y3937D01*
X4388Y4006D01*
X4349Y4065D01*
X4290Y4104D01*
X4267Y4108D01*
X4250Y4163D01*
X5341Y5253D01*
X5387Y5234D01*
D02*
G37*
G36*
X1048Y2639D02*
X1014Y2589D01*
X1000Y2520D01*
X1014Y2451D01*
X1053Y2392D01*
X1112Y2353D01*
X1181Y2339D01*
X1250Y2353D01*
X1253Y2354D01*
X1285Y2316D01*
X1116Y2147D01*
X1090Y2108D01*
X1080Y2062D01*
X1080Y2062D01*
Y1176D01*
X1073Y1171D01*
X1034Y1112D01*
X1020Y1043D01*
X1034Y974D01*
X1073Y916D01*
X1132Y876D01*
X1201Y863D01*
X1270Y876D01*
X1329Y916D01*
X1354Y953D01*
X1404Y938D01*
Y772D01*
X1673D01*
X1693Y725D01*
X1670Y696D01*
X394D01*
Y958D01*
X523D01*
X523Y958D01*
X563Y966D01*
X597Y988D01*
X895Y1285D01*
X895Y1285D01*
X917Y1320D01*
X925Y1360D01*
X925Y1360D01*
Y2587D01*
X1009Y2671D01*
X1048Y2639D01*
D02*
G37*
%LPC*%
G36*
X9843Y11362D02*
X9773Y11348D01*
X9715Y11309D01*
X9676Y11250D01*
X9662Y11181D01*
X9676Y11112D01*
X9715Y11053D01*
X9773Y11014D01*
X9843Y11000D01*
X9912Y11014D01*
X9970Y11053D01*
X10009Y11112D01*
X10023Y11181D01*
X10009Y11250D01*
X9970Y11309D01*
X9912Y11348D01*
X9843Y11362D01*
D02*
G37*
G36*
X1171Y7041D02*
X1102Y7027D01*
X1044Y6988D01*
X1004Y6929D01*
X991Y6860D01*
X1004Y6791D01*
X1044Y6733D01*
X1102Y6693D01*
X1171Y6680D01*
X1240Y6693D01*
X1299Y6733D01*
X1338Y6791D01*
X1352Y6860D01*
X1338Y6929D01*
X1299Y6988D01*
X1240Y7027D01*
X1171Y7041D01*
D02*
G37*
G36*
X1083Y6096D02*
X1014Y6082D01*
X955Y6043D01*
X916Y5984D01*
X902Y5915D01*
X916Y5846D01*
X955Y5788D01*
X1014Y5748D01*
X1083Y5735D01*
X1152Y5748D01*
X1210Y5788D01*
X1250Y5846D01*
X1263Y5915D01*
X1250Y5984D01*
X1210Y6043D01*
X1152Y6082D01*
X1083Y6096D01*
D02*
G37*
G36*
X1762Y6076D02*
X1693Y6063D01*
X1634Y6023D01*
X1595Y5965D01*
X1581Y5896D01*
X1595Y5827D01*
X1634Y5768D01*
X1693Y5729D01*
X1762Y5715D01*
X1831Y5729D01*
X1890Y5768D01*
X1929Y5827D01*
X1942Y5896D01*
X1929Y5965D01*
X1890Y6023D01*
X1831Y6063D01*
X1762Y6076D01*
D02*
G37*
G36*
X1319Y5673D02*
X1250Y5659D01*
X1191Y5620D01*
X1152Y5561D01*
X1138Y5492D01*
X1152Y5423D01*
X1191Y5364D01*
X1250Y5325D01*
X1319Y5311D01*
X1388Y5325D01*
X1447Y5364D01*
X1486Y5423D01*
X1500Y5492D01*
X1486Y5561D01*
X1447Y5620D01*
X1388Y5659D01*
X1319Y5673D01*
D02*
G37*
G36*
X2343Y5446D02*
X2273Y5433D01*
X2215Y5393D01*
X2176Y5335D01*
X2162Y5266D01*
X2176Y5197D01*
X2215Y5138D01*
X2273Y5099D01*
X2343Y5085D01*
X2412Y5099D01*
X2470Y5138D01*
X2509Y5197D01*
X2523Y5266D01*
X2509Y5335D01*
X2470Y5393D01*
X2412Y5433D01*
X2343Y5446D01*
D02*
G37*
G36*
X6562Y9512D02*
X6493Y9499D01*
X6435Y9460D01*
X6378Y9498D01*
X6309Y9512D01*
X6240Y9498D01*
X6182Y9459D01*
X6142Y9400D01*
X6129Y9331D01*
X6142Y9262D01*
X6182Y9203D01*
X6240Y9164D01*
X6309Y9151D01*
X6378Y9164D01*
X6436Y9203D01*
X6493Y9165D01*
X6562Y9151D01*
X6631Y9165D01*
X6690Y9204D01*
X6729Y9263D01*
X6743Y9332D01*
X6729Y9401D01*
X6690Y9459D01*
X6631Y9499D01*
X6562Y9512D01*
D02*
G37*
G36*
X7746Y8429D02*
X7677Y8415D01*
X7618Y8376D01*
X7579Y8317D01*
X7571Y8278D01*
X7549Y8232D01*
X7480Y8218D01*
X7421Y8179D01*
X7382Y8120D01*
X7369Y8051D01*
X7382Y7982D01*
X7421Y7923D01*
X7480Y7884D01*
X7549Y7871D01*
X7618Y7884D01*
X7677Y7923D01*
X7716Y7982D01*
X7724Y8021D01*
X7746Y8067D01*
X7815Y8081D01*
X7874Y8120D01*
X7913Y8179D01*
X7927Y8248D01*
X7913Y8317D01*
X7874Y8376D01*
X7815Y8415D01*
X7746Y8429D01*
D02*
G37*
G36*
X7140Y8091D02*
X7071Y8077D01*
X7012Y8038D01*
X6973Y7979D01*
X6959Y7910D01*
X6973Y7841D01*
X7012Y7782D01*
X7071Y7743D01*
X7140Y7729D01*
X7209Y7743D01*
X7268Y7782D01*
X7307Y7841D01*
X7321Y7910D01*
X7307Y7979D01*
X7268Y8038D01*
X7209Y8077D01*
X7140Y8091D01*
D02*
G37*
G36*
X6370Y6063D02*
X6301Y6049D01*
X6243Y6010D01*
X6204Y5951D01*
X6199Y5926D01*
X6147Y5921D01*
X6116Y5967D01*
X6057Y6006D01*
X5988Y6020D01*
X5919Y6006D01*
X5860Y5967D01*
X5821Y5908D01*
X5808Y5839D01*
X5821Y5770D01*
X5860Y5711D01*
X5919Y5672D01*
X5942Y5668D01*
X5961Y5621D01*
X5960Y5620D01*
X5946Y5551D01*
X5960Y5482D01*
X5999Y5423D01*
X6058Y5384D01*
X6127Y5371D01*
X6196Y5384D01*
X6255Y5423D01*
X6273Y5451D01*
X6551D01*
X6589Y5401D01*
X6582Y5364D01*
X6595Y5295D01*
X6634Y5237D01*
X6693Y5198D01*
X6744Y5187D01*
X6764Y5178D01*
X6781Y5137D01*
X6773Y5098D01*
X6787Y5029D01*
X6826Y4971D01*
X6885Y4932D01*
X6954Y4918D01*
X7023Y4932D01*
X7081Y4971D01*
X7121Y5029D01*
X7134Y5098D01*
X7121Y5168D01*
X7081Y5226D01*
X7023Y5265D01*
X6972Y5275D01*
X6951Y5285D01*
X6935Y5326D01*
X6943Y5364D01*
X6936Y5401D01*
X6973Y5451D01*
X7125D01*
X8202Y4374D01*
X8241Y4347D01*
X8287Y4338D01*
X8287Y4338D01*
X11376D01*
X11403Y4288D01*
X11379Y4252D01*
X11365Y4183D01*
X11379Y4114D01*
X11418Y4056D01*
X11477Y4016D01*
X11546Y4003D01*
X11566Y4007D01*
X11671Y3902D01*
Y2822D01*
X11558Y2709D01*
X11112D01*
X11070Y2700D01*
X11034Y2676D01*
X10911Y2554D01*
X10891Y2558D01*
X10822Y2544D01*
X10763Y2505D01*
X10724Y2446D01*
X10710Y2377D01*
X10724Y2308D01*
X10763Y2249D01*
X10822Y2210D01*
X10891Y2197D01*
X10934Y2205D01*
X10940Y2170D01*
X10980Y2112D01*
X11038Y2073D01*
X11107Y2059D01*
X11176Y2073D01*
X11235Y2112D01*
X11274Y2170D01*
X11288Y2239D01*
X11274Y2309D01*
X11235Y2367D01*
X11176Y2406D01*
X11170Y2408D01*
X11153Y2458D01*
X11176Y2488D01*
X11604D01*
X11646Y2496D01*
X11682Y2520D01*
X11782Y2620D01*
X12134Y2268D01*
Y1685D01*
X12116Y1673D01*
X12077Y1614D01*
X12063Y1545D01*
X12077Y1476D01*
X12116Y1418D01*
X12175Y1378D01*
X12244Y1365D01*
X12313Y1378D01*
X12372Y1418D01*
X12411Y1476D01*
X12425Y1545D01*
X12411Y1614D01*
X12372Y1673D01*
X12354Y1685D01*
Y2314D01*
X12346Y2356D01*
X12322Y2392D01*
X11892Y2822D01*
Y3948D01*
X11883Y3990D01*
X11909Y4042D01*
X11929Y4055D01*
X11968Y4114D01*
X11982Y4183D01*
X11968Y4252D01*
X11929Y4311D01*
X11870Y4350D01*
X11801Y4364D01*
X11800Y4364D01*
X11620Y4544D01*
X11581Y4570D01*
X11535Y4579D01*
X11535Y4579D01*
X8337D01*
X7260Y5656D01*
X7221Y5682D01*
X7175Y5692D01*
X7175Y5692D01*
X6494D01*
X6479Y5742D01*
X6498Y5754D01*
X6537Y5813D01*
X6551Y5882D01*
X6537Y5951D01*
X6498Y6010D01*
X6440Y6049D01*
X6370Y6063D01*
D02*
G37*
G36*
X7579Y6066D02*
X7510Y6053D01*
X7451Y6014D01*
X7412Y5955D01*
X7398Y5886D01*
X7412Y5817D01*
X7451Y5758D01*
X7510Y5719D01*
X7539Y5713D01*
X7585Y5689D01*
X7599Y5620D01*
X7638Y5561D01*
X7697Y5522D01*
X7766Y5508D01*
X7835Y5522D01*
X7893Y5561D01*
X7933Y5620D01*
X7946Y5689D01*
X7933Y5758D01*
X7893Y5817D01*
X7835Y5856D01*
X7806Y5862D01*
X7759Y5886D01*
X7746Y5955D01*
X7706Y6014D01*
X7648Y6053D01*
X7579Y6066D01*
D02*
G37*
G36*
X6954Y4651D02*
X6885Y4637D01*
X6826Y4598D01*
X6787Y4539D01*
X6773Y4470D01*
X6787Y4401D01*
X6798Y4384D01*
X6823Y4340D01*
X6784Y4282D01*
X6770Y4213D01*
X6784Y4143D01*
X6823Y4085D01*
X6881Y4046D01*
X6950Y4032D01*
X7020Y4046D01*
X7078Y4085D01*
X7117Y4143D01*
X7131Y4213D01*
X7117Y4282D01*
X7106Y4299D01*
X7081Y4343D01*
X7121Y4401D01*
X7134Y4470D01*
X7121Y4539D01*
X7081Y4598D01*
X7023Y4637D01*
X6954Y4651D01*
D02*
G37*
G36*
X8019Y3986D02*
X7949Y3973D01*
X7891Y3934D01*
X7852Y3875D01*
X7838Y3806D01*
X7852Y3737D01*
X7891Y3678D01*
X7949Y3639D01*
X8019Y3625D01*
X8088Y3639D01*
X8146Y3678D01*
X8185Y3737D01*
X8199Y3806D01*
X8185Y3875D01*
X8146Y3934D01*
X8088Y3973D01*
X8019Y3986D01*
D02*
G37*
G36*
X7470D02*
X7401Y3973D01*
X7343Y3934D01*
X7304Y3875D01*
X7290Y3806D01*
X7304Y3737D01*
X7343Y3678D01*
X7401Y3639D01*
X7470Y3625D01*
X7540Y3639D01*
X7598Y3678D01*
X7637Y3737D01*
X7651Y3806D01*
X7637Y3875D01*
X7598Y3934D01*
X7540Y3973D01*
X7470Y3986D01*
D02*
G37*
G36*
X6122Y3596D02*
X6053Y3582D01*
X5994Y3543D01*
X5955Y3484D01*
X5941Y3415D01*
X5955Y3346D01*
X5994Y3288D01*
X6053Y3248D01*
X6122Y3235D01*
X6191Y3248D01*
X6250Y3288D01*
X6289Y3346D01*
X6303Y3415D01*
X6289Y3484D01*
X6250Y3543D01*
X6191Y3582D01*
X6122Y3596D01*
D02*
G37*
G36*
X8819Y3242D02*
X8750Y3228D01*
X8691Y3189D01*
X8652Y3130D01*
X8638Y3061D01*
X8652Y2992D01*
X8691Y2933D01*
X8750Y2894D01*
X8819Y2880D01*
X8888Y2894D01*
X8947Y2933D01*
X8986Y2992D01*
X9000Y3061D01*
X8986Y3130D01*
X8947Y3189D01*
X8888Y3228D01*
X8819Y3242D01*
D02*
G37*
G36*
X6319Y2789D02*
X6250Y2775D01*
X6191Y2736D01*
X6152Y2678D01*
X6143Y2629D01*
X6092D01*
X6082Y2678D01*
X6043Y2736D01*
X5984Y2775D01*
X5915Y2789D01*
X5846Y2775D01*
X5787Y2736D01*
X5748Y2678D01*
X5735Y2608D01*
X5748Y2539D01*
X5787Y2481D01*
X5846Y2442D01*
X5915Y2428D01*
X5942Y2433D01*
X5955Y2369D01*
X5994Y2310D01*
X6053Y2271D01*
X6122Y2257D01*
X6191Y2271D01*
X6250Y2310D01*
X6289Y2369D01*
X6301Y2431D01*
X6319Y2428D01*
X6388Y2442D01*
X6447Y2481D01*
X6486Y2539D01*
X6500Y2608D01*
X6486Y2678D01*
X6447Y2736D01*
X6388Y2775D01*
X6319Y2789D01*
D02*
G37*
G36*
X5492Y2789D02*
X5423Y2775D01*
X5364Y2736D01*
X5325Y2677D01*
X5311Y2608D01*
X5325Y2539D01*
X5364Y2481D01*
X5423Y2441D01*
X5492Y2428D01*
X5561Y2441D01*
X5620Y2481D01*
X5659Y2539D01*
X5673Y2608D01*
X5659Y2677D01*
X5620Y2736D01*
X5561Y2775D01*
X5492Y2789D01*
D02*
G37*
G36*
X4041Y1729D02*
X2939D01*
Y1272D01*
X4041D01*
Y1729D01*
D02*
G37*
G36*
X5858Y1093D02*
X5110D01*
Y344D01*
X5858D01*
Y1093D01*
D02*
G37*
G36*
X8484Y1096D02*
X8387Y1083D01*
X8296Y1045D01*
X8217Y985D01*
X8158Y907D01*
X8120Y816D01*
X8107Y719D01*
X8120Y621D01*
X8158Y530D01*
X8217Y452D01*
X8296Y392D01*
X8387Y354D01*
X8484Y341D01*
X8582Y354D01*
X8673Y392D01*
X8751Y452D01*
X8811Y530D01*
X8849Y621D01*
X8861Y719D01*
X8849Y816D01*
X8811Y907D01*
X8751Y985D01*
X8673Y1045D01*
X8582Y1083D01*
X8484Y1096D01*
D02*
G37*
G36*
X7484D02*
X7387Y1083D01*
X7296Y1045D01*
X7218Y985D01*
X7158Y907D01*
X7120Y816D01*
X7107Y719D01*
X7120Y621D01*
X7158Y530D01*
X7218Y452D01*
X7296Y392D01*
X7387Y354D01*
X7484Y341D01*
X7582Y354D01*
X7673Y392D01*
X7751Y452D01*
X7811Y530D01*
X7849Y621D01*
X7861Y719D01*
X7849Y816D01*
X7811Y907D01*
X7751Y985D01*
X7673Y1045D01*
X7582Y1083D01*
X7484Y1096D01*
D02*
G37*
G36*
X6484D02*
X6387Y1083D01*
X6296Y1045D01*
X6217Y985D01*
X6158Y907D01*
X6120Y816D01*
X6107Y719D01*
X6120Y621D01*
X6158Y530D01*
X6217Y452D01*
X6296Y392D01*
X6387Y354D01*
X6484Y341D01*
X6582Y354D01*
X6673Y392D01*
X6751Y452D01*
X6811Y530D01*
X6849Y621D01*
X6861Y719D01*
X6849Y816D01*
X6811Y907D01*
X6751Y985D01*
X6673Y1045D01*
X6582Y1083D01*
X6484Y1096D01*
D02*
G37*
G36*
X12048Y624D02*
X11979Y610D01*
X11920Y571D01*
X11881Y512D01*
X11867Y443D01*
X11881Y374D01*
X11920Y315D01*
X11979Y276D01*
X12048Y262D01*
X12117Y276D01*
X12176Y315D01*
X12215Y374D01*
X12228Y443D01*
X12215Y512D01*
X12176Y571D01*
X12117Y610D01*
X12048Y624D01*
D02*
G37*
G36*
X4326Y6288D02*
X4316Y6287D01*
X4305Y6286D01*
X4295Y6284D01*
X4285Y6282D01*
X4275Y6278D01*
X4265Y6274D01*
X4256Y6270D01*
X4247Y6264D01*
X4238Y6258D01*
X4230Y6252D01*
X4222Y6245D01*
X4215Y6237D01*
X4208Y6229D01*
X4202Y6220D01*
X4197Y6211D01*
X4192Y6201D01*
X4188Y6192D01*
X4185Y6182D01*
X4182Y6171D01*
X4180Y6161D01*
X4180Y6157D01*
X4176Y6150D01*
X4169Y6142D01*
X4147Y6126D01*
X4137Y6122D01*
X4130Y6120D01*
X4126Y6121D01*
X4115Y6122D01*
X4105Y6122D01*
X4094Y6122D01*
X4084Y6121D01*
X4073Y6119D01*
X4063Y6116D01*
X4053Y6113D01*
X4043Y6109D01*
X4034Y6104D01*
X4025Y6099D01*
X4016Y6093D01*
X4008Y6086D01*
X4000Y6079D01*
X3993Y6071D01*
X3986Y6063D01*
X3980Y6055D01*
X3975Y6046D01*
X3970Y6036D01*
X3966Y6026D01*
X3963Y6016D01*
X3960Y6006D01*
X3958Y5996D01*
X3957Y5985D01*
X3957Y5975D01*
X3957Y5964D01*
X3958Y5954D01*
X3960Y5943D01*
X3963Y5933D01*
X3966Y5923D01*
X3970Y5913D01*
X3975Y5904D01*
X3980Y5895D01*
X3986Y5886D01*
X3993Y5878D01*
X4000Y5870D01*
X4008Y5863D01*
X4016Y5856D01*
X4025Y5850D01*
X4034Y5845D01*
X4043Y5840D01*
X4053Y5836D01*
X4063Y5833D01*
X4073Y5830D01*
X4084Y5828D01*
X4094Y5827D01*
X4105Y5827D01*
X4115Y5827D01*
X4126Y5828D01*
X4136Y5830D01*
X4146Y5833D01*
X4156Y5836D01*
X4166Y5840D01*
X4175Y5845D01*
X4184Y5850D01*
X4193Y5856D01*
X4201Y5863D01*
X4209Y5870D01*
X4216Y5878D01*
X4223Y5886D01*
X4229Y5895D01*
X4234Y5904D01*
X4239Y5913D01*
X4243Y5923D01*
X4246Y5933D01*
X4249Y5943D01*
X4251Y5954D01*
X4251Y5957D01*
X4255Y5965D01*
X4262Y5973D01*
X4284Y5989D01*
X4294Y5993D01*
X4301Y5995D01*
X4305Y5994D01*
X4316Y5993D01*
X4326Y5992D01*
X4337Y5993D01*
X4347Y5994D01*
X4358Y5996D01*
X4368Y5998D01*
X4378Y6002D01*
X4388Y6006D01*
X4397Y6010D01*
X4406Y6016D01*
X4415Y6022D01*
X4423Y6028D01*
X4431Y6036D01*
X4438Y6043D01*
X4445Y6052D01*
X4451Y6060D01*
X4456Y6069D01*
X4461Y6079D01*
X4465Y6088D01*
X4468Y6098D01*
X4471Y6109D01*
X4473Y6119D01*
X4474Y6130D01*
X4474Y6140D01*
X4474Y6151D01*
X4473Y6161D01*
X4471Y6171D01*
X4468Y6182D01*
X4465Y6192D01*
X4461Y6201D01*
X4456Y6211D01*
X4451Y6220D01*
X4445Y6229D01*
X4438Y6237D01*
X4431Y6245D01*
X4423Y6252D01*
X4415Y6258D01*
X4406Y6264D01*
X4397Y6270D01*
X4388Y6274D01*
X4378Y6278D01*
X4368Y6282D01*
X4358Y6284D01*
X4347Y6286D01*
X4337Y6287D01*
X4326Y6288D01*
D02*
G37*
G36*
X4397Y8678D02*
X4328Y8664D01*
X4269Y8625D01*
X4230Y8566D01*
X4216Y8497D01*
X4230Y8428D01*
X4269Y8369D01*
X4328Y8330D01*
X4397Y8316D01*
X4466Y8330D01*
X4525Y8369D01*
X4564Y8428D01*
X4577Y8497D01*
X4564Y8566D01*
X4525Y8625D01*
X4466Y8664D01*
X4397Y8678D01*
D02*
G37*
G36*
X4535Y3833D02*
X4466Y3819D01*
X4408Y3780D01*
X4369Y3721D01*
X4355Y3652D01*
X4369Y3583D01*
X4408Y3525D01*
X4466Y3485D01*
X4535Y3472D01*
X4605Y3485D01*
X4663Y3525D01*
X4702Y3583D01*
X4716Y3652D01*
X4702Y3721D01*
X4663Y3780D01*
X4605Y3819D01*
X4535Y3833D01*
D02*
G37*
%LPD*%
D11*
X6147Y5571D02*
X7175D01*
X8287Y4459D01*
X11801Y4174D02*
Y4183D01*
X8287Y4459D02*
X11535D01*
X11801Y4192D01*
Y4183D02*
Y4192D01*
X6127Y5551D02*
X6147Y5571D01*
X1402Y2262D02*
X2508D01*
X1201Y2062D02*
X1402Y2262D01*
X1201Y1043D02*
Y2062D01*
X2618Y2372D02*
Y2789D01*
X2508Y2262D02*
X2618Y2372D01*
Y2789D02*
X2829Y3000D01*
X3490D01*
D12*
X12244Y1545D02*
Y2314D01*
X11782Y2776D02*
X12244Y2314D01*
X11604Y2598D02*
X11782Y2776D01*
X11112Y2598D02*
X11604D01*
X11782Y2776D02*
Y3948D01*
X11546Y4183D02*
X11782Y3948D01*
X10891Y2377D02*
X11112Y2598D01*
X413Y7835D02*
X3607Y11029D01*
X-293Y7835D02*
X413D01*
X-303Y7825D02*
X-293Y7835D01*
X-18Y7362D02*
X191D01*
X-303Y7648D02*
X-18Y7362D01*
X191D02*
X3681Y10852D01*
X4438D01*
X3607Y11029D02*
X4512D01*
X-1318Y7648D02*
X-303D01*
X-1479Y7487D02*
X-1318Y7648D01*
X4650Y10722D02*
Y10890D01*
X4512Y11029D02*
X4650Y10890D01*
X-1456Y7825D02*
X-303D01*
X4650Y10722D02*
X4705Y10667D01*
Y10630D02*
Y10667D01*
X-1479Y7802D02*
X-1456Y7825D01*
X4473Y10722D02*
Y10817D01*
X4438Y10852D02*
X4473Y10817D01*
X4418Y10667D02*
X4473Y10722D01*
X4418Y10630D02*
Y10667D01*
D13*
X-70Y11260D02*
X300D01*
X-70Y10790D02*
X300D01*
D15*
X5359Y5470D02*
Y7662D01*
X3490Y3601D02*
X5359Y5470D01*
X3490Y3000D02*
Y3601D01*
X3573Y5433D02*
Y5709D01*
X5682Y7985D02*
Y8063D01*
X5359Y7662D02*
X5682Y7985D01*
X12037Y10709D02*
X12130Y10616D01*
Y10419D02*
Y10616D01*
Y10419D02*
X12145Y10404D01*
X7707Y10709D02*
X12037D01*
X-3443Y3232D02*
X-1339Y1127D01*
X-2829Y6486D02*
X-2204Y7111D01*
X-1479D01*
X-3873Y6476D02*
X-2829Y6486D01*
D19*
X2863Y2777D02*
X4247D01*
X2731Y2645D02*
X2863Y2777D01*
X2731Y1454D02*
Y2645D01*
X5492Y4022D02*
Y7289D01*
X6753Y8550D01*
X4247Y2777D02*
X5492Y4022D01*
X7025Y10290D02*
X8129D01*
X8356Y10064D02*
X11531D01*
X8129Y10290D02*
X8356Y10064D01*
X2418Y6980D02*
X2786Y6612D01*
X523Y1063D02*
X820Y1360D01*
X-955Y1063D02*
X523D01*
X-1392Y1501D02*
X-955Y1063D01*
X1096Y3976D02*
X1102Y3970D01*
X-827Y3976D02*
X1096D01*
X-2352Y5502D02*
X-827Y3976D01*
X699Y4449D02*
X709Y4439D01*
X-1142Y4449D02*
X699D01*
X-2283Y5591D02*
X-1142Y4449D01*
X11850Y7943D02*
X12333Y7461D01*
X11850Y7943D02*
Y9744D01*
X6706Y9971D02*
X7025Y10290D01*
X4280Y9971D02*
X6706D01*
X2418Y6980D02*
Y8388D01*
X4199Y10168D02*
X6208D01*
X2418Y8388D02*
X4199Y10168D01*
X2516Y7141D02*
Y8347D01*
X4239Y10070D02*
X6248D01*
X2516Y8347D02*
X4239Y10070D01*
X2615Y8306D02*
X4280Y9971D01*
X2615Y7287D02*
Y8306D01*
X4321Y9873D02*
X6772D01*
X2787Y8339D02*
X4321Y9873D01*
X2787Y7363D02*
Y8339D01*
X6208Y10168D02*
X6546Y10507D01*
X6248Y10070D02*
X6587Y10408D01*
X6772Y9873D02*
X7090Y10192D01*
X5080Y9775D02*
X6812D01*
X3632Y8327D02*
X5080Y9775D01*
X6812D02*
X7131Y10094D01*
X6546Y10507D02*
X11411D01*
X6587Y10408D02*
X11371D01*
X6853Y9676D02*
X7172Y9995D01*
X6126Y9676D02*
X6853D01*
X5108Y8659D02*
X6126Y9676D01*
X7172Y9995D02*
X8007D01*
X7131Y10094D02*
X8048D01*
X7090Y10192D02*
X8088D01*
X5108Y6912D02*
Y8659D01*
X12047Y8137D02*
Y9871D01*
X11411Y10507D02*
X12047Y9871D01*
X12283Y7657D02*
X12490D01*
X11949Y7992D02*
X12283Y7657D01*
X11949Y7992D02*
Y9830D01*
X11371Y10408D02*
X11949Y9830D01*
X11555Y7451D02*
X12333Y6673D01*
X11555Y7451D02*
Y9622D01*
X11654Y7502D02*
X12286Y6870D01*
X11654Y7502D02*
Y9663D01*
X12286Y6870D02*
X12490D01*
X12172Y7264D02*
X12490D01*
X11752Y7684D02*
Y9703D01*
Y7684D02*
X12172Y7264D01*
X12047Y8137D02*
X12330Y7854D01*
X11413Y9764D02*
X11555Y9622D01*
X8238Y9764D02*
X11413D01*
X11449Y9867D02*
X11654Y9663D01*
X8274Y9867D02*
X11449D01*
X11490Y9966D02*
X11752Y9703D01*
X8315Y9966D02*
X11490D01*
X11531Y10064D02*
X11850Y9744D01*
X8088Y10192D02*
X8315Y9966D01*
X8048Y10094D02*
X8274Y9867D01*
X8007Y9995D02*
X8238Y9764D01*
X2516Y7141D02*
X2787Y6870D01*
X2615Y7287D02*
X2786Y7116D01*
X4712Y6516D02*
X5108Y6912D01*
X6753Y8550D02*
X7386D01*
X1102Y3970D02*
X1130D01*
X2278Y1000D02*
X2731Y1454D01*
X709Y4751D02*
X841D01*
X-1392Y1501D02*
Y2581D01*
X1955Y1000D02*
X2278D01*
X1955Y827D02*
Y1000D01*
X1718Y591D02*
X1955Y827D01*
X-1392Y591D02*
X1718D01*
X-2491Y6246D02*
X-2283Y6453D01*
X-3963Y6246D02*
X-2491D01*
X-4213Y6496D02*
X-3963Y6246D01*
X-4213Y6496D02*
Y6951D01*
X-3455Y5502D02*
X-2352D01*
X1102Y4350D02*
Y4412D01*
X1181Y2520D02*
X1936D01*
X1955Y2500D01*
X820Y2631D02*
X1181Y2992D01*
X820Y1360D02*
Y2631D01*
X-2283Y5591D02*
Y6453D01*
X1181Y2992D02*
X1946D01*
X1955Y3000D01*
D43*
D03*
Y2500D02*
D03*
Y2000D02*
D03*
Y1500D02*
D03*
Y1000D02*
D03*
X3490Y3000D02*
D03*
Y2500D02*
D03*
Y2000D02*
D03*
Y1500D02*
D03*
Y1000D02*
D03*
D55*
X3573Y5374D02*
D03*
Y5768D02*
D03*
D119*
X118Y7126D02*
D03*
Y3740D02*
D03*
Y8071D02*
D03*
Y7598D02*
D03*
X118Y1299D02*
D03*
X118Y827D02*
D03*
X118Y354D02*
D03*
X118Y4213D02*
D03*
Y4685D02*
D03*
Y11496D02*
D03*
Y11024D02*
D03*
Y10551D02*
D03*
D122*
X-4281Y10748D02*
D03*
X-1604D02*
D03*
D123*
X14764Y10827D02*
D03*
D128*
X-1417Y10236D02*
X-866Y10787D01*
X-2392Y10236D02*
X-1417D01*
X-3455Y11299D02*
X-2392Y10236D01*
X-866Y10787D02*
X-73D01*
X1686Y10790D02*
X2091Y10385D01*
X300Y10790D02*
X1686D01*
X-3455Y9469D02*
X-3455Y9469D01*
X-3455Y9469D02*
Y11299D01*
X-2416Y11260D02*
X-70D01*
X-2455Y11299D02*
X-2416Y11260D01*
X300D02*
X300Y11260D01*
X2087D01*
D138*
X-3943Y4126D02*
D03*
X-1943Y4526D02*
D03*
Y3726D02*
D03*
D139*
X5748Y11240D02*
D03*
X3150D02*
D03*
D140*
X8484Y719D02*
D03*
X7484D02*
D03*
X6484D02*
D03*
D141*
X5484D02*
D03*
D142*
X3327Y5719D02*
D03*
X2559Y5913D02*
D03*
X12333Y8248D02*
D03*
X12048Y443D02*
D03*
X11526Y974D02*
D03*
X11896Y236D02*
D03*
X5276Y4419D02*
D03*
X-2148Y8502D02*
D03*
X-2969Y2062D02*
D03*
X6370Y5882D02*
D03*
X7579Y5886D02*
D03*
X7746Y5416D02*
D03*
X6762Y5364D02*
D03*
X12244Y1545D02*
D03*
X12490Y2175D02*
D03*
X6713Y1585D02*
D03*
X6286Y1188D02*
D03*
X10827Y10965D02*
D03*
X12057Y3652D02*
D03*
X12060Y3061D02*
D03*
X10713Y2002D02*
D03*
X10715Y1451D02*
D03*
X11132Y968D02*
D03*
X10837D02*
D03*
X8858Y2362D02*
D03*
Y1181D02*
D03*
Y394D02*
D03*
X8071Y2756D02*
D03*
Y1969D02*
D03*
Y394D02*
D03*
X7677Y11417D02*
D03*
Y11024D02*
D03*
Y2362D02*
D03*
Y1575D02*
D03*
X7283Y1181D02*
D03*
X6890Y11417D02*
D03*
Y394D02*
D03*
X6496Y11417D02*
D03*
Y11024D02*
D03*
X6102Y11417D02*
D03*
Y11024D02*
D03*
Y394D02*
D03*
X4921D02*
D03*
X4528Y3937D02*
D03*
Y1969D02*
D03*
X3346Y3937D02*
D03*
Y394D02*
D03*
X2559Y11417D02*
D03*
X2165Y6299D02*
D03*
Y5512D02*
D03*
X984Y3543D02*
D03*
X591Y7087D02*
D03*
Y5906D02*
D03*
Y5118D02*
D03*
Y3543D02*
D03*
Y1969D02*
D03*
Y1575D02*
D03*
Y787D02*
D03*
X12191Y236D02*
D03*
X10541Y968D02*
D03*
X10062Y4197D02*
D03*
X9621Y4126D02*
D03*
Y3851D02*
D03*
Y3575D02*
D03*
Y3299D02*
D03*
Y3024D02*
D03*
Y2748D02*
D03*
Y2473D02*
D03*
Y2197D02*
D03*
Y1921D02*
D03*
Y1646D02*
D03*
Y1370D02*
D03*
X9622Y1095D02*
D03*
X9694Y829D02*
D03*
X9878Y623D02*
D03*
X10124Y500D02*
D03*
X10418Y495D02*
D03*
X10246Y968D02*
D03*
X10065Y1175D02*
D03*
Y1451D02*
D03*
Y1726D02*
D03*
Y2002D02*
D03*
Y2278D02*
D03*
Y2553D02*
D03*
Y2829D02*
D03*
Y3104D02*
D03*
Y3380D02*
D03*
Y3656D02*
D03*
Y3931D02*
D03*
X12490Y1880D02*
D03*
X11870Y2421D02*
D03*
Y2126D02*
D03*
X11860Y1270D02*
D03*
Y1565D02*
D03*
X11362D02*
D03*
Y1270D02*
D03*
X11546Y4183D02*
D03*
X11801Y4183D02*
D03*
X12060Y4180D02*
D03*
X11107Y2239D02*
D03*
X12485Y482D02*
D03*
X10525Y3848D02*
D03*
X11069Y3854D02*
D03*
X11230Y4163D02*
D03*
X10750Y4167D02*
D03*
X11362Y1860D02*
D03*
X11604Y486D02*
D03*
X10124Y236D02*
D03*
X11304Y484D02*
D03*
X10891Y2377D02*
D03*
X12490Y3061D02*
D03*
X5682Y8063D02*
D03*
X2340Y4843D02*
D03*
X1319Y5492D02*
D03*
X1762Y5896D02*
D03*
X1083Y5915D02*
D03*
X2343Y5266D02*
D03*
X6127Y5551D02*
D03*
X6954Y5098D02*
D03*
X5988Y5839D02*
D03*
X4326Y6140D02*
D03*
X4535Y5913D02*
D03*
X4105Y5975D02*
D03*
X2786Y6612D02*
D03*
X2897Y6246D02*
D03*
X12145Y10404D02*
D03*
X2218Y3639D02*
D03*
X581Y394D02*
D03*
X1201Y392D02*
D03*
X2356Y394D02*
D03*
X5179Y9484D02*
D03*
X3638Y8780D02*
D03*
X8819Y3061D02*
D03*
X9843Y11181D02*
D03*
X11779Y11024D02*
D03*
X5728Y10676D02*
D03*
X3953Y10633D02*
D03*
X2113Y10834D02*
D03*
X7215Y3179D02*
D03*
X8730Y1575D02*
D03*
X10419Y236D02*
D03*
X11305D02*
D03*
X11010D02*
D03*
X10715D02*
D03*
X12486D02*
D03*
X11600D02*
D03*
X12490Y2766D02*
D03*
Y2470D02*
D03*
Y3652D02*
D03*
Y3356D02*
D03*
X8331Y11309D02*
D03*
X7023Y11191D02*
D03*
X8858Y3599D02*
D03*
X5492Y3378D02*
D03*
X5502Y3764D02*
D03*
X4921Y3931D02*
D03*
X4358Y4892D02*
D03*
X3317Y4548D02*
D03*
Y4882D02*
D03*
X709Y6860D02*
D03*
Y10118D02*
D03*
X706Y9547D02*
D03*
X2018Y6876D02*
D03*
X1776Y9554D02*
D03*
Y10118D02*
D03*
X3265Y9676D02*
D03*
X3676Y9948D02*
D03*
X6309Y9331D02*
D03*
X4869Y8366D02*
D03*
X4715Y8669D02*
D03*
X7766Y5689D02*
D03*
X12333Y7067D02*
D03*
X12490Y6870D02*
D03*
Y7264D02*
D03*
X12333Y7461D02*
D03*
X7707Y10709D02*
D03*
X12330Y7854D02*
D03*
X12490Y7657D02*
D03*
X2787Y6870D02*
D03*
X2786Y7116D02*
D03*
X2787Y7363D02*
D03*
X12333Y6673D02*
D03*
X3632Y8327D02*
D03*
X6684Y10193D02*
D03*
X7549Y9656D02*
D03*
X6562Y9332D02*
D03*
X7746Y4636D02*
D03*
X8022Y4183D02*
D03*
X8022Y10935D02*
D03*
X8858Y10915D02*
D03*
X12057Y10935D02*
D03*
X11220Y10965D02*
D03*
X10433D02*
D03*
X12333Y9429D02*
D03*
X12330Y9035D02*
D03*
X12490Y9232D02*
D03*
Y8839D02*
D03*
Y10020D02*
D03*
X12333Y9823D02*
D03*
X12490Y9626D02*
D03*
X12330Y8642D02*
D03*
X12490Y8051D02*
D03*
Y8445D02*
D03*
X12333Y5886D02*
D03*
X12490Y4902D02*
D03*
X12333Y5098D02*
D03*
X12490Y5295D02*
D03*
X12333Y5492D02*
D03*
X12490Y5689D02*
D03*
Y6083D02*
D03*
X12333Y6280D02*
D03*
X12490Y6476D02*
D03*
X1102Y3970D02*
D03*
X709Y4439D02*
D03*
X5492Y2992D02*
D03*
X7766Y6083D02*
D03*
X7707Y6673D02*
D03*
X6954Y4470D02*
D03*
X5492Y2608D02*
D03*
X6562Y2854D02*
D03*
X8780Y5591D02*
D03*
X7470Y3806D02*
D03*
X7746Y7657D02*
D03*
X7549Y8051D02*
D03*
Y8839D02*
D03*
X7333Y9036D02*
D03*
X7746Y9035D02*
D03*
X7549Y9232D02*
D03*
X7746Y8248D02*
D03*
Y8642D02*
D03*
Y9429D02*
D03*
Y9823D02*
D03*
X5984Y4764D02*
D03*
X6240Y4508D02*
D03*
X4535Y3652D02*
D03*
X1171Y6860D02*
D03*
X945Y7781D02*
D03*
X6710Y8210D02*
D03*
X6713Y7844D02*
D03*
X7323Y9360D02*
D03*
X6122Y2438D02*
D03*
X5915Y2608D02*
D03*
X6319D02*
D03*
X6122Y3415D02*
D03*
X6950Y4213D02*
D03*
X12490Y3947D02*
D03*
Y4242D02*
D03*
X7140Y7910D02*
D03*
X7386Y8550D02*
D03*
X8858Y4183D02*
D03*
X8019Y3806D02*
D03*
X12333Y4459D02*
D03*
X11299Y7165D02*
D03*
X10669Y4882D02*
D03*
X11299Y10236D02*
D03*
Y8740D02*
D03*
X9409Y6378D02*
D03*
X10039Y5591D02*
D03*
X9409Y7953D02*
D03*
X10669Y6378D02*
D03*
X10039Y8740D02*
D03*
X10669Y9528D02*
D03*
X8780Y7165D02*
D03*
X9409Y10236D02*
D03*
X11299Y5591D02*
D03*
X8780Y8740D02*
D03*
Y10236D02*
D03*
X9409Y4882D02*
D03*
Y9528D02*
D03*
X10039Y7165D02*
D03*
X10669Y7953D02*
D03*
X11299Y9528D02*
D03*
X10669Y10236D02*
D03*
X8780Y6378D02*
D03*
X11299Y7953D02*
D03*
Y4882D02*
D03*
X10669Y5591D02*
D03*
X8780Y7953D02*
D03*
X10039Y10236D02*
D03*
X10039Y6378D02*
D03*
X10669Y8740D02*
D03*
X11299Y6378D02*
D03*
X9409Y8740D02*
D03*
Y5591D02*
D03*
X10039Y7953D02*
D03*
X8780Y4882D02*
D03*
X9409Y7165D02*
D03*
X10039Y9528D02*
D03*
X10669Y7165D02*
D03*
X8780Y9528D02*
D03*
X10039Y4880D02*
D03*
X10069Y10965D02*
D03*
X4705Y6516D02*
D03*
X4715Y6762D02*
D03*
X4535Y6307D02*
D03*
X4221Y3937D02*
D03*
X-1339Y1127D02*
D03*
X1201Y1043D02*
D03*
X-1392Y2581D02*
D03*
Y591D02*
D03*
X-1479Y7111D02*
D03*
X-3873Y6476D02*
D03*
X-4213Y6951D02*
D03*
X709Y4751D02*
D03*
X1102Y4350D02*
D03*
X-3443Y3232D02*
D03*
X-3455Y5502D02*
D03*
X1181Y2520D02*
D03*
X2087Y7966D02*
D03*
X-2283Y3232D02*
D03*
X1181Y2992D02*
D03*
X-2283Y6453D02*
D03*
X-3455Y9469D02*
D03*
X6976Y7165D02*
D03*
X5709Y7146D02*
D03*
X4931Y7343D02*
D03*
X4397Y8497D02*
D03*
X-2851Y7011D02*
D03*
X4705Y10630D02*
D03*
X-1479Y7802D02*
D03*
X4418Y10630D02*
D03*
X-1479Y7487D02*
D03*
X4014Y7966D02*
D03*
X2087Y11260D02*
D03*
X2091Y10385D02*
D03*
X-3455Y11299D02*
D03*
X-2455D02*
D03*
X6250Y4764D02*
D03*
X5984Y4508D02*
D03*
X-3706Y7437D02*
D03*
X-3706Y7870D02*
D03*
X-3272Y7437D02*
D03*
X-3272Y7870D02*
D03*
X3638Y6869D02*
D03*
X3953D02*
D03*
Y7184D02*
D03*
X3638D02*
D03*
D143*
X11054Y2958D02*
D03*
X11054Y3194D02*
D03*
X10817Y3194D02*
D03*
Y2958D02*
D03*
X11290D02*
D03*
X11290Y3194D02*
D03*
X11526Y3194D02*
D03*
Y2958D02*
D03*
M02*
