G04*
G04 #@! TF.GenerationSoftware,Altium Limited,Altium Designer,20.0.13 (296)*
G04*
G04 Layer_Color=8388736*
%FSLAX24Y24*%
%MOIN*%
G70*
G01*
G75*
%ADD71R,0.0979X0.0610*%
%ADD72R,0.0729X0.0729*%
%ADD73C,0.0138*%
%ADD74C,0.0370*%
%ADD75R,0.0454X0.0336*%
%ADD76R,0.0454X0.0847*%
%ADD77R,0.0257X0.0336*%
%ADD78R,0.0296X0.0670*%
%ADD79R,0.0532X0.0769*%
%ADD80R,0.0473X0.0316*%
%ADD81R,0.0690X0.0611*%
%ADD82R,0.0808X0.0670*%
%ADD83R,0.0217X0.0592*%
%ADD84R,0.0166X0.0178*%
%ADD85R,0.0178X0.0166*%
%ADD86C,0.0454*%
%ADD87R,0.0926X0.0454*%
%ADD88R,0.1005X0.0359*%
%ADD89R,0.0242X0.0207*%
%ADD90R,0.0148X0.0207*%
%ADD91O,0.0178X0.0454*%
%ADD92O,0.0454X0.0178*%
%ADD93R,0.0879X0.0879*%
%ADD94R,0.0710X0.0710*%
G04:AMPARAMS|DCode=95|XSize=13.9mil|YSize=39.5mil|CornerRadius=5mil|HoleSize=0mil|Usage=FLASHONLY|Rotation=0.000|XOffset=0mil|YOffset=0mil|HoleType=Round|Shape=RoundedRectangle|*
%AMROUNDEDRECTD95*
21,1,0.0139,0.0295,0,0,0.0*
21,1,0.0039,0.0395,0,0,0.0*
1,1,0.0099,0.0020,-0.0148*
1,1,0.0099,-0.0020,-0.0148*
1,1,0.0099,-0.0020,0.0148*
1,1,0.0099,0.0020,0.0148*
%
%ADD95ROUNDEDRECTD95*%
G04:AMPARAMS|DCode=96|XSize=13.9mil|YSize=39.5mil|CornerRadius=5mil|HoleSize=0mil|Usage=FLASHONLY|Rotation=90.000|XOffset=0mil|YOffset=0mil|HoleType=Round|Shape=RoundedRectangle|*
%AMROUNDEDRECTD96*
21,1,0.0139,0.0295,0,0,90.0*
21,1,0.0039,0.0395,0,0,90.0*
1,1,0.0099,0.0148,0.0020*
1,1,0.0099,0.0148,-0.0020*
1,1,0.0099,-0.0148,-0.0020*
1,1,0.0099,-0.0148,0.0020*
%
%ADD96ROUNDEDRECTD96*%
%ADD97R,0.0360X0.0380*%
%ADD98R,0.0316X0.0395*%
%ADD99R,0.0316X0.0198*%
%ADD100O,0.0177X0.0453*%
%ADD101R,0.0252X0.0157*%
%ADD102R,0.0165X0.0411*%
%ADD103R,0.0362X0.0165*%
%ADD104R,0.0296X0.0257*%
%ADD105R,0.0375X0.0355*%
%ADD106R,0.0257X0.0296*%
%ADD107R,0.0454X0.0690*%
%ADD108R,0.0316X0.0257*%
%ADD109R,0.0355X0.0375*%
%ADD110R,0.0493X0.0611*%
%ADD111R,0.0158X0.0158*%
%ADD112R,0.0354X0.0354*%
%ADD113R,0.0252X0.0252*%
%ADD114R,0.0157X0.0252*%
%ADD115R,0.0157X0.0157*%
%ADD116R,0.0217X0.0217*%
%ADD117C,0.0450*%
%ADD118O,0.0414X0.0690*%
%ADD119C,0.0236*%
%ADD120C,0.0651*%
%ADD121R,0.0651X0.0651*%
%ADD122C,0.0354*%
%ADD123C,0.1181*%
G36*
X-2781Y9173D02*
X-2776Y9172D01*
X-2772Y9170D01*
X-2768Y9168D01*
X-2764Y9165D01*
X-2761Y9161D01*
X-2759Y9157D01*
X-2757Y9153D01*
X-2756Y9148D01*
X-2756Y9144D01*
Y8750D01*
X-2756Y8745D01*
X-2757Y8741D01*
X-2759Y8737D01*
X-2761Y8733D01*
X-2764Y8729D01*
X-2768Y8726D01*
X-2772Y8724D01*
X-2776Y8722D01*
X-2781Y8721D01*
X-2785Y8720D01*
X-2884D01*
X-2888Y8721D01*
X-2893Y8722D01*
X-2897Y8724D01*
X-2901Y8726D01*
X-2905Y8729D01*
X-2908Y8733D01*
X-2910Y8737D01*
X-2912Y8741D01*
X-2913Y8745D01*
X-2913Y8750D01*
Y9144D01*
X-2913Y9148D01*
X-2912Y9153D01*
X-2910Y9157D01*
X-2908Y9161D01*
X-2905Y9165D01*
X-2901Y9168D01*
X-2897Y9170D01*
X-2893Y9172D01*
X-2888Y9173D01*
X-2884Y9173D01*
X-2785D01*
X-2781Y9173D01*
D02*
G37*
G36*
X-2564Y9173D02*
X-2560Y9172D01*
X-2555Y9170D01*
X-2551Y9168D01*
X-2548Y9165D01*
X-2545Y9161D01*
X-2543Y9157D01*
X-2541Y9153D01*
X-2540Y9148D01*
X-2539Y9144D01*
Y8750D01*
X-2540Y8745D01*
X-2541Y8741D01*
X-2543Y8737D01*
X-2545Y8733D01*
X-2548Y8729D01*
X-2551Y8726D01*
X-2555Y8724D01*
X-2560Y8722D01*
X-2564Y8721D01*
X-2569Y8720D01*
X-2667D01*
X-2672Y8721D01*
X-2676Y8722D01*
X-2681Y8724D01*
X-2685Y8726D01*
X-2688Y8729D01*
X-2691Y8733D01*
X-2694Y8737D01*
X-2695Y8741D01*
X-2697Y8745D01*
X-2697Y8750D01*
Y9144D01*
X-2697Y9148D01*
X-2695Y9153D01*
X-2694Y9157D01*
X-2691Y9161D01*
X-2688Y9165D01*
X-2685Y9168D01*
X-2681Y9170D01*
X-2676Y9172D01*
X-2672Y9173D01*
X-2667Y9173D01*
X-2569D01*
X-2564Y9173D01*
D02*
G37*
G36*
X1205Y10151D02*
X1210Y10150D01*
X1214Y10148D01*
X1218Y10146D01*
X1222Y10143D01*
X1225Y10139D01*
X1227Y10135D01*
X1229Y10131D01*
X1230Y10127D01*
X1230Y10122D01*
Y9728D01*
X1230Y9724D01*
X1229Y9719D01*
X1227Y9715D01*
X1225Y9711D01*
X1222Y9707D01*
X1218Y9704D01*
X1214Y9702D01*
X1210Y9700D01*
X1205Y9699D01*
X1201Y9699D01*
X1102D01*
X1098Y9699D01*
X1093Y9700D01*
X1089Y9702D01*
X1085Y9704D01*
X1081Y9707D01*
X1078Y9711D01*
X1076Y9715D01*
X1074Y9719D01*
X1073Y9724D01*
X1073Y9728D01*
Y10122D01*
X1073Y10127D01*
X1074Y10131D01*
X1076Y10135D01*
X1078Y10139D01*
X1081Y10143D01*
X1085Y10146D01*
X1089Y10148D01*
X1093Y10150D01*
X1098Y10151D01*
X1102Y10152D01*
X1201D01*
X1205Y10151D01*
D02*
G37*
G36*
X1422Y10151D02*
X1426Y10150D01*
X1431Y10148D01*
X1435Y10146D01*
X1438Y10143D01*
X1441Y10139D01*
X1444Y10135D01*
X1445Y10131D01*
X1447Y10127D01*
X1447Y10122D01*
Y9728D01*
X1447Y9724D01*
X1445Y9719D01*
X1444Y9715D01*
X1441Y9711D01*
X1438Y9707D01*
X1435Y9704D01*
X1431Y9702D01*
X1426Y9700D01*
X1422Y9699D01*
X1417Y9699D01*
X1319D01*
X1314Y9699D01*
X1310Y9700D01*
X1305Y9702D01*
X1301Y9704D01*
X1298Y9707D01*
X1295Y9711D01*
X1293Y9715D01*
X1291Y9719D01*
X1290Y9724D01*
X1289Y9728D01*
Y10122D01*
X1290Y10127D01*
X1291Y10131D01*
X1293Y10135D01*
X1295Y10139D01*
X1298Y10143D01*
X1301Y10146D01*
X1305Y10148D01*
X1310Y10150D01*
X1314Y10151D01*
X1319Y10151D01*
X1417D01*
X1422Y10151D01*
D02*
G37*
G36*
X2194Y10147D02*
X2198Y10146D01*
X2202Y10144D01*
X2206Y10142D01*
X2210Y10139D01*
X2213Y10136D01*
X2215Y10132D01*
X2217Y10127D01*
X2218Y10123D01*
X2219Y10118D01*
Y9724D01*
X2218Y9720D01*
X2217Y9715D01*
X2215Y9711D01*
X2213Y9707D01*
X2210Y9703D01*
X2206Y9700D01*
X2202Y9698D01*
X2198Y9696D01*
X2194Y9695D01*
X2189Y9695D01*
X2091D01*
X2086Y9695D01*
X2081Y9696D01*
X2077Y9698D01*
X2073Y9700D01*
X2070Y9703D01*
X2067Y9707D01*
X2064Y9711D01*
X2062Y9715D01*
X2061Y9720D01*
X2061Y9724D01*
Y10118D01*
X2061Y10123D01*
X2062Y10127D01*
X2064Y10132D01*
X2067Y10136D01*
X2070Y10139D01*
X2073Y10142D01*
X2077Y10144D01*
X2081Y10146D01*
X2086Y10147D01*
X2091Y10148D01*
X2189D01*
X2194Y10147D01*
D02*
G37*
G36*
X2410Y10147D02*
X2415Y10146D01*
X2419Y10144D01*
X2423Y10142D01*
X2426Y10139D01*
X2429Y10136D01*
X2432Y10132D01*
X2434Y10127D01*
X2435Y10123D01*
X2435Y10118D01*
Y9724D01*
X2435Y9720D01*
X2434Y9715D01*
X2432Y9711D01*
X2429Y9707D01*
X2426Y9703D01*
X2423Y9700D01*
X2419Y9698D01*
X2415Y9696D01*
X2410Y9695D01*
X2406Y9695D01*
X2307D01*
X2302Y9695D01*
X2298Y9696D01*
X2294Y9698D01*
X2290Y9700D01*
X2286Y9703D01*
X2283Y9707D01*
X2281Y9711D01*
X2279Y9715D01*
X2278Y9720D01*
X2277Y9724D01*
Y10118D01*
X2278Y10123D01*
X2279Y10127D01*
X2281Y10132D01*
X2283Y10136D01*
X2286Y10139D01*
X2290Y10142D01*
X2294Y10144D01*
X2298Y10146D01*
X2302Y10147D01*
X2307Y10148D01*
X2406D01*
X2410Y10147D01*
D02*
G37*
G36*
X6747Y10807D02*
X6751Y10806D01*
X6756Y10804D01*
X6760Y10802D01*
X6763Y10798D01*
X6766Y10795D01*
X6769Y10791D01*
X6770Y10787D01*
X6771Y10782D01*
X6772Y10778D01*
Y10384D01*
X6771Y10379D01*
X6770Y10375D01*
X6769Y10370D01*
X6766Y10366D01*
X6763Y10363D01*
X6760Y10360D01*
X6756Y10357D01*
X6751Y10356D01*
X6747Y10355D01*
X6742Y10354D01*
X6644D01*
X6639Y10355D01*
X6635Y10356D01*
X6630Y10357D01*
X6626Y10360D01*
X6623Y10363D01*
X6620Y10366D01*
X6617Y10370D01*
X6616Y10375D01*
X6614Y10379D01*
X6614Y10384D01*
Y10778D01*
X6614Y10782D01*
X6616Y10787D01*
X6617Y10791D01*
X6620Y10795D01*
X6623Y10798D01*
X6626Y10802D01*
X6630Y10804D01*
X6635Y10806D01*
X6639Y10807D01*
X6644Y10807D01*
X6742D01*
X6747Y10807D01*
D02*
G37*
G36*
X6530Y10807D02*
X6535Y10806D01*
X6539Y10804D01*
X6543Y10802D01*
X6547Y10798D01*
X6550Y10795D01*
X6552Y10791D01*
X6554Y10787D01*
X6555Y10782D01*
X6555Y10778D01*
Y10384D01*
X6555Y10379D01*
X6554Y10375D01*
X6552Y10370D01*
X6550Y10366D01*
X6547Y10363D01*
X6543Y10360D01*
X6539Y10357D01*
X6535Y10356D01*
X6530Y10355D01*
X6526Y10354D01*
X6427D01*
X6423Y10355D01*
X6418Y10356D01*
X6414Y10357D01*
X6410Y10360D01*
X6406Y10363D01*
X6403Y10366D01*
X6401Y10370D01*
X6399Y10375D01*
X6398Y10379D01*
X6398Y10384D01*
Y10778D01*
X6398Y10782D01*
X6399Y10787D01*
X6401Y10791D01*
X6403Y10795D01*
X6406Y10798D01*
X6410Y10802D01*
X6414Y10804D01*
X6418Y10806D01*
X6423Y10807D01*
X6427Y10807D01*
X6526D01*
X6530Y10807D01*
D02*
G37*
D71*
X11172Y3076D02*
D03*
D72*
X15128Y2264D02*
D03*
X13750D02*
D03*
Y886D02*
D03*
X15128D02*
D03*
D73*
X6319Y2831D02*
D03*
X6122D02*
D03*
X5925D02*
D03*
X5728D02*
D03*
X6220Y3002D02*
D03*
X5827D02*
D03*
X6319Y3173D02*
D03*
X6122D02*
D03*
X5925D02*
D03*
X5728D02*
D03*
D74*
X-3443Y3876D02*
D03*
X-2943D02*
D03*
X-2443D02*
D03*
Y4376D02*
D03*
X-2943D02*
D03*
X-3443D02*
D03*
D75*
X3776Y317D02*
D03*
X2776D02*
D03*
X1776D02*
D03*
X2776Y4880D02*
D03*
X1776D02*
D03*
D76*
X4862Y2598D02*
D03*
X689D02*
D03*
D77*
X3638Y4880D02*
D03*
X3913D02*
D03*
D78*
X1230Y7362D02*
D03*
X2018D02*
D03*
X1624D02*
D03*
D79*
X2648Y8888D02*
D03*
X600D02*
D03*
D80*
X8848Y1860D02*
D03*
X7215D02*
D03*
X8848Y2707D02*
D03*
X7215D02*
D03*
D81*
X5709Y10275D02*
D03*
X3189D02*
D03*
D82*
X3977Y11240D02*
D03*
X4922D02*
D03*
D83*
X3937Y10187D02*
D03*
X4193D02*
D03*
X4961D02*
D03*
X4705D02*
D03*
X4449D02*
D03*
D84*
X11586Y709D02*
D03*
X11362D02*
D03*
X10232Y728D02*
D03*
X10457D02*
D03*
X11625Y1816D02*
D03*
X11849D02*
D03*
X7128Y9114D02*
D03*
X6903D02*
D03*
X7128Y8166D02*
D03*
X6903D02*
D03*
X7128Y8482D02*
D03*
X6903D02*
D03*
X7128Y8798D02*
D03*
X6903D02*
D03*
X3006Y5285D02*
D03*
X2782D02*
D03*
X3006Y5610D02*
D03*
X2781D02*
D03*
X-2124Y8126D02*
D03*
X-2348D02*
D03*
X-2348Y7806D02*
D03*
Y7491D02*
D03*
X-2124D02*
D03*
X-2124Y7806D02*
D03*
X4957Y9685D02*
D03*
X5181D02*
D03*
X3695D02*
D03*
X3470D02*
D03*
X6752Y3189D02*
D03*
X6976D02*
D03*
X3006Y5926D02*
D03*
X2782D02*
D03*
D85*
X11054Y709D02*
D03*
Y484D02*
D03*
X10758D02*
D03*
Y709D02*
D03*
X11619Y2117D02*
D03*
Y2342D02*
D03*
X11624Y1506D02*
D03*
Y1282D02*
D03*
X11323Y2117D02*
D03*
Y2342D02*
D03*
X5157Y3943D02*
D03*
Y4167D02*
D03*
Y4605D02*
D03*
Y4830D02*
D03*
X5384Y8213D02*
D03*
Y7988D02*
D03*
X3993Y5491D02*
D03*
Y5267D02*
D03*
X3642Y5277D02*
D03*
Y5501D02*
D03*
Y5773D02*
D03*
Y5998D02*
D03*
X-1734Y7817D02*
D03*
X-1734Y8041D02*
D03*
X-1734Y7265D02*
D03*
X-1734Y7490D02*
D03*
X4418Y7989D02*
D03*
Y8213D02*
D03*
D86*
X4882Y9163D02*
D03*
X-3110Y5984D02*
D03*
X-1457D02*
D03*
X-2283D02*
D03*
X-3937D02*
D03*
X797Y5512D02*
D03*
X1776Y6377D02*
D03*
X1776Y5500D02*
D03*
X797Y6378D02*
D03*
D87*
X5354Y6663D02*
D03*
Y5797D02*
D03*
D88*
X-2083Y2616D02*
D03*
Y2116D02*
D03*
Y1616D02*
D03*
Y1116D02*
D03*
Y616D02*
D03*
X-3619Y2616D02*
D03*
Y2116D02*
D03*
Y1616D02*
D03*
Y1116D02*
D03*
Y616D02*
D03*
D89*
X10722Y3543D02*
D03*
X11622Y3543D02*
D03*
Y2608D02*
D03*
X10722D02*
D03*
D90*
X10975Y3543D02*
D03*
X11172D02*
D03*
X11369D02*
D03*
Y2608D02*
D03*
X11172D02*
D03*
X10975D02*
D03*
D91*
X-3873Y6876D02*
D03*
X-3617D02*
D03*
X-3361D02*
D03*
X-3105D02*
D03*
X-3105Y8431D02*
D03*
X-3361D02*
D03*
X-3617D02*
D03*
X-3873D02*
D03*
D92*
X-2711Y7269D02*
D03*
X-2711Y7525D02*
D03*
X-2711Y7781D02*
D03*
X-2711Y8037D02*
D03*
X-4267D02*
D03*
Y7781D02*
D03*
Y7525D02*
D03*
Y7269D02*
D03*
D93*
X-3489Y7653D02*
D03*
D94*
X3796Y7026D02*
D03*
D95*
X3481Y7627D02*
D03*
X3638D02*
D03*
X3796D02*
D03*
X3953D02*
D03*
X4111D02*
D03*
Y6426D02*
D03*
X3953D02*
D03*
X3796D02*
D03*
X3638D02*
D03*
X3481D02*
D03*
D96*
X4396Y7341D02*
D03*
Y7184D02*
D03*
Y7026D02*
D03*
Y6869D02*
D03*
Y6711D02*
D03*
X3196D02*
D03*
Y6869D02*
D03*
Y7026D02*
D03*
Y7184D02*
D03*
Y7341D02*
D03*
D97*
X8110Y3455D02*
D03*
X7560D02*
D03*
X5168Y8593D02*
D03*
X5718D02*
D03*
D98*
X6663Y6191D02*
D03*
Y6762D02*
D03*
X6329Y6762D02*
D03*
X6329Y6191D02*
D03*
D99*
X7271Y7687D02*
D03*
Y7490D02*
D03*
Y7293D02*
D03*
X6681D02*
D03*
Y7490D02*
D03*
Y7687D02*
D03*
X7271Y9948D02*
D03*
Y9751D02*
D03*
Y9554D02*
D03*
X6681D02*
D03*
Y9751D02*
D03*
Y9948D02*
D03*
D100*
X6742Y10581D02*
D03*
X6427D02*
D03*
X1417Y9925D02*
D03*
X1102D02*
D03*
X2091Y9921D02*
D03*
X2406D02*
D03*
X-2884Y8947D02*
D03*
X-2569D02*
D03*
D101*
X8024Y6280D02*
D03*
Y5886D02*
D03*
Y5295D02*
D03*
Y5689D02*
D03*
X12055Y10413D02*
D03*
Y10217D02*
D03*
Y10020D02*
D03*
Y9823D02*
D03*
Y9626D02*
D03*
Y9429D02*
D03*
Y9232D02*
D03*
Y9035D02*
D03*
Y8839D02*
D03*
Y8642D02*
D03*
Y8445D02*
D03*
Y8248D02*
D03*
Y8051D02*
D03*
Y7854D02*
D03*
Y7657D02*
D03*
Y7461D02*
D03*
Y7264D02*
D03*
Y7067D02*
D03*
Y6870D02*
D03*
Y6673D02*
D03*
Y6476D02*
D03*
Y6280D02*
D03*
Y6083D02*
D03*
Y5886D02*
D03*
Y5689D02*
D03*
Y5492D02*
D03*
Y5295D02*
D03*
Y5098D02*
D03*
Y4902D02*
D03*
Y4705D02*
D03*
X8024Y4902D02*
D03*
Y5098D02*
D03*
Y5492D02*
D03*
Y6083D02*
D03*
Y6476D02*
D03*
Y6673D02*
D03*
Y6870D02*
D03*
Y7067D02*
D03*
Y7264D02*
D03*
Y7461D02*
D03*
Y7657D02*
D03*
Y7854D02*
D03*
Y8051D02*
D03*
Y8248D02*
D03*
Y8445D02*
D03*
Y8642D02*
D03*
Y8839D02*
D03*
Y9035D02*
D03*
Y9232D02*
D03*
Y9429D02*
D03*
Y9626D02*
D03*
Y9823D02*
D03*
Y10020D02*
D03*
Y10217D02*
D03*
Y10413D02*
D03*
Y4705D02*
D03*
D102*
X5733Y4126D02*
D03*
X5930D02*
D03*
X6127D02*
D03*
X6324D02*
D03*
X6521D02*
D03*
Y5140D02*
D03*
X6324D02*
D03*
X6127D02*
D03*
X5930D02*
D03*
X5733D02*
D03*
D103*
X6629Y4436D02*
D03*
Y4633D02*
D03*
Y4830D02*
D03*
X5625D02*
D03*
Y4633D02*
D03*
Y4436D02*
D03*
D104*
X5217Y7372D02*
D03*
X5610D02*
D03*
X-3514Y8858D02*
D03*
X-3907D02*
D03*
D105*
X3238Y8839D02*
D03*
Y8307D02*
D03*
X4016Y8839D02*
D03*
Y8307D02*
D03*
X7333Y10650D02*
D03*
Y11181D02*
D03*
D106*
X4358Y5294D02*
D03*
Y5688D02*
D03*
D107*
X-3927Y11299D02*
D03*
X-1959D02*
D03*
X-2943D02*
D03*
Y10197D02*
D03*
X-1959D02*
D03*
X-3927D02*
D03*
D108*
X11791Y3917D02*
D03*
X11417D02*
D03*
X4518Y9695D02*
D03*
X4144D02*
D03*
D109*
X12321Y11323D02*
D03*
X11789D02*
D03*
X10167D02*
D03*
X10699D02*
D03*
D110*
X9302D02*
D03*
X8711D02*
D03*
D111*
X11978Y1043D02*
D03*
Y886D02*
D03*
Y728D02*
D03*
X12136D02*
D03*
Y886D02*
D03*
Y1043D02*
D03*
D112*
X11299Y9921D02*
D03*
X10669D02*
D03*
X9409D02*
D03*
X10039D02*
D03*
X8780D02*
D03*
Y9134D02*
D03*
X10039D02*
D03*
X9409D02*
D03*
X10669D02*
D03*
X11299D02*
D03*
Y8346D02*
D03*
X10669D02*
D03*
X9409D02*
D03*
X10039D02*
D03*
X8780D02*
D03*
X11299Y6772D02*
D03*
X10669D02*
D03*
X9409D02*
D03*
X10039D02*
D03*
X8780D02*
D03*
X11299Y7559D02*
D03*
X10669D02*
D03*
X9409D02*
D03*
X10039D02*
D03*
X8780D02*
D03*
X11299Y5984D02*
D03*
X10669D02*
D03*
X9409D02*
D03*
X10039D02*
D03*
X8780D02*
D03*
X10669Y5197D02*
D03*
X9409D02*
D03*
X10039D02*
D03*
X8780D02*
D03*
X11299D02*
D03*
D113*
X12055Y10657D02*
D03*
Y4461D02*
D03*
X8024Y10657D02*
D03*
Y4461D02*
D03*
D114*
X11811D02*
D03*
X11614D02*
D03*
X11417D02*
D03*
X11220D02*
D03*
X11024D02*
D03*
X10827D02*
D03*
X10630D02*
D03*
X10433D02*
D03*
X10236D02*
D03*
X10039D02*
D03*
X9843D02*
D03*
X9449D02*
D03*
X9252D02*
D03*
X9055D02*
D03*
X8858D02*
D03*
X8661D02*
D03*
X8465D02*
D03*
X8268D02*
D03*
X8465Y10657D02*
D03*
X8661D02*
D03*
X8858D02*
D03*
X9055D02*
D03*
X9252D02*
D03*
X9449D02*
D03*
X9646D02*
D03*
X9843D02*
D03*
X10039D02*
D03*
X10236D02*
D03*
X10433D02*
D03*
X10630D02*
D03*
X10827D02*
D03*
X11024D02*
D03*
X11220D02*
D03*
X11417D02*
D03*
X11614D02*
D03*
X11811D02*
D03*
X9646Y4461D02*
D03*
X8268Y10657D02*
D03*
D115*
X11752Y9823D02*
D03*
Y9429D02*
D03*
Y9626D02*
D03*
Y9232D02*
D03*
Y7657D02*
D03*
Y8051D02*
D03*
Y7854D02*
D03*
Y8248D02*
D03*
Y6280D02*
D03*
Y5689D02*
D03*
Y6083D02*
D03*
Y5886D02*
D03*
X8327Y9823D02*
D03*
Y9429D02*
D03*
Y9626D02*
D03*
Y9232D02*
D03*
Y7657D02*
D03*
Y8051D02*
D03*
Y7854D02*
D03*
Y8248D02*
D03*
Y6280D02*
D03*
Y5689D02*
D03*
Y6083D02*
D03*
Y5886D02*
D03*
D116*
X-2726Y8947D02*
D03*
D117*
X-3943Y4126D02*
D03*
X-1943Y4526D02*
D03*
Y3726D02*
D03*
D118*
X5748Y11240D02*
D03*
X3150D02*
D03*
D119*
X118Y7126D02*
D03*
Y3740D02*
D03*
Y8071D02*
D03*
Y7598D02*
D03*
X118Y1299D02*
D03*
X118Y827D02*
D03*
X118Y354D02*
D03*
X118Y4213D02*
D03*
Y4685D02*
D03*
Y11496D02*
D03*
Y11024D02*
D03*
Y10551D02*
D03*
D120*
X8484Y719D02*
D03*
X7484D02*
D03*
X6484D02*
D03*
D121*
X5484D02*
D03*
D122*
X-4281Y10748D02*
D03*
X-1604D02*
D03*
D123*
X14764Y10827D02*
D03*
M02*
