M48
;Layer_Color=9474304
;FILE_FORMAT=2:4
INCH,TZ
;TYPE=PLATED
T1F00S00C0.0098
T2F00S00C0.0120
T4F00S00C0.0354
;TYPE=NON_PLATED
T5F00S00C0.0236
T6F00S00C0.0354
T7F00S00C0.0390
T8F00S00C0.1181
%
T01
X-2969Y2062
X-3443Y3232
X-2283
X-1392Y2581
X-1339Y1127
X-1392Y591
X581Y394
X591Y787
Y1575
Y1969
X1181Y2520
Y2992
X984Y3543
X591
X1102Y3970
Y4350
X709Y4439
X2218Y3639
X3346Y3937
X3317Y4548
X4221Y3937
X4528Y3937
X4535Y3652
X4921Y3931
X5502Y3764
X5492Y3378
Y2992
Y2608
X5915Y2608
X6122Y2438
X6319Y2608
X6562Y2854
X7215Y3179
X7470Y3806
X6950Y4213
X6954Y4470
X6240Y4508
X5984
X5276Y4419
X6122Y3415
X6286Y1188
X6713Y1585
X7283Y1181
X6890Y394
X6102
X4921
X3346
X2356
X1201Y392
Y1043
X4528Y1969
X8071
Y2756
X7677Y2362
Y1575
X8730Y1575
X8858Y1181
Y394
X8071
X9878Y623
X10124Y500
Y236
X10419
X10418Y495
X10715Y236
X11010
X11305
X11304Y484
X11604Y486
X11600Y236
X11896
X12191
X12486
X12485Y482
X12048Y443
X11860Y1270
Y1565
X12244Y1545
X12490Y1880
Y2175
Y2470
Y2766
Y3061
Y3356
Y3652
Y3947
Y4242
X12333Y4459
X12060Y4180
X11801Y4183
X11546Y4183
X11230Y4163
X11069Y3854
X10525Y3848
X10065Y3931
X10062Y4197
X9621Y4126
Y3851
Y3575
Y3299
Y3024
Y2748
Y2473
Y2197
Y1921
Y1646
Y1370
X9622Y1095
X9694Y829
X10246Y968
X10541
X10837
X11132
X11526Y974
X11362Y1270
Y1565
Y1860
X11107Y2239
X10891Y2377
X10713Y2002
X10715Y1451
X10065
Y1175
Y1726
Y2002
Y2278
Y2553
Y2829
Y3104
Y3380
Y3656
X10750Y4167
X12057Y3652
X12060Y3061
X11870Y2421
Y2126
X8858Y2362
X8819Y3061
X8858Y3599
Y4183
X8022
X8019Y3806
X7746Y4636
Y5416
X7766Y5689
X7579Y5886
X7766Y6083
X7707Y6673
X7746Y7657
Y8248
Y8642
Y9035
Y9429
Y9823
X7707Y10709
X7677Y11024
Y11417
X8331Y11309
X8022Y10935
X8858Y10915
X8780Y10236
X9409
X10039
X10669
X11299
Y9528
X10669
X10039
X9409
X8780
Y8740
X9409
X10039
X10669
X11299
Y7953
X10669
X10039
X9409
X8780
Y7165
X9409
X10039
X10669
X11299
Y6378
X10669
X10039
X9409
X8780
Y5591
X9409
X10039
X10669
X11299
Y4882
X10669
X10039Y4880
X9409Y4882
X8780
X12490Y4902
X12333Y5098
X12490Y5295
X12333Y5492
X12490Y5689
X12333Y5886
X12490Y6083
X12333Y6280
X12490Y6476
X12333Y6673
X12490Y6870
X12333Y7067
X12490Y7264
X12333Y7461
X12490Y7657
X12330Y7854
X12490Y8051
X12333Y8248
X12490Y8445
X12330Y8642
X12490Y8839
X12330Y9035
X12490Y9232
X12333Y9429
X12490Y9626
X12333Y9823
X12490Y10020
X12145Y10404
X12057Y10935
X11779Y11024
X11220Y10965
X10827
X10433
X10069
X9843Y11181
X7023Y11191
X6890Y11417
X6496
Y11024
X6102
Y11417
X5728Y10676
X4705Y10630
X4418
X3953Y10633
X3676Y9948
X3265Y9676
X3638Y8780
X3632Y8327
X4014Y7966
X3953Y7184
Y6869
X3638
Y7184
X2786Y7116
X2787Y7363
Y6870
X2786Y6612
X2897Y6246
X2559Y5913
X2165Y6299
X2018Y6876
X1171Y6860
X709
X591Y7087
X945Y7781
X2087Y7966
X1776Y9554
Y10118
X2091Y10385
X2113Y10834
X2087Y11260
X2559Y11417
X709Y10118
X706Y9547
X591Y5906
X1083Y5915
X1319Y5492
X1762Y5896
X2165Y5512
X2343Y5266
X2340Y4843
X3317Y4882
X3327Y5719
X4105Y5975
X4326Y6140
X4535Y6307
X4705Y6516
X4715Y6762
X4931Y7343
X5709Y7146
X5682Y8063
X4869Y8366
X4715Y8669
X4397Y8497
X5179Y9484
X6309Y9331
X6562Y9332
X7323Y9360
X7333Y9036
X7549Y9232
Y8839
X7386Y8550
X7549Y8051
X7140Y7910
X6713Y7844
X6710Y8210
X6976Y7165
X6370Y5882
X5988Y5839
X6127Y5551
X6762Y5364
X6954Y5098
X6250Y4764
X5984
X4358Y4892
X4535Y5913
X591Y5118
X709Y4751
X-1479Y7111
Y7487
Y7802
X-2148Y8502
X-3272Y7870
X-3272Y7437
X-3706Y7437
X-3706Y7870
X-4213Y6951
X-3873Y6476
X-3455Y5502
X-2851Y7011
X-2283Y6453
X-3455Y9469
X-3455Y11299
X-2455
X6684Y10193
X7549Y9656
T02
X10817Y2958
Y3194
X11054Y3194
X11290
X11290Y2958
X11054
X11526
Y3194
T04
X5484Y719
X6484
X7484
X8484
T05
X118Y354
X118Y827
X118Y1299
X118Y3740
Y4213
Y4685
Y7126
Y7598
Y8071
Y10551
Y11024
Y11496
T06
X-4281Y10748
X-1604
T07
X-3943Y4126
X-1943Y4526
Y3726
T08
X14764Y10827
M30
