G04*
G04 #@! TF.GenerationSoftware,Altium Limited,Altium Designer,20.0.9 (164)*
G04*
G04 Layer_Color=16711935*
%FSLAX24Y24*%
%MOIN*%
G70*
G01*
G75*
%ADD88R,0.1005X0.0359*%
%ADD117C,0.0450*%
%ADD118O,0.0414X0.0690*%
%ADD119C,0.0236*%
%ADD120C,0.0651*%
%ADD121R,0.0651X0.0651*%
%ADD122C,0.0354*%
%ADD123C,0.1181*%
%ADD145C,0.0257*%
D88*
X1955Y3000D02*
D03*
Y2500D02*
D03*
Y2000D02*
D03*
Y1500D02*
D03*
Y1000D02*
D03*
X3490Y3000D02*
D03*
Y2500D02*
D03*
Y2000D02*
D03*
Y1500D02*
D03*
Y1000D02*
D03*
D117*
X-3943Y4126D02*
D03*
X-1943Y4526D02*
D03*
Y3726D02*
D03*
D118*
X5748Y11240D02*
D03*
X3150D02*
D03*
D119*
X118Y7126D02*
D03*
Y3740D02*
D03*
Y8071D02*
D03*
Y7598D02*
D03*
X118Y1299D02*
D03*
X118Y827D02*
D03*
X118Y354D02*
D03*
X118Y4213D02*
D03*
Y4685D02*
D03*
Y11496D02*
D03*
Y11024D02*
D03*
Y10551D02*
D03*
D120*
X8484Y719D02*
D03*
X7484D02*
D03*
X6484D02*
D03*
D121*
X5484D02*
D03*
D122*
X-4281Y10748D02*
D03*
X-1604D02*
D03*
D123*
X14764Y10827D02*
D03*
D145*
X2559Y5913D02*
D03*
M02*
